<svg width="264" height="265" viewBox="0 0 264 265" fill="none" xmlns="http://www.w3.org/2000/svg">
<path d="M264 132.5C264 205.402 204.902 264.5 132 264.5C59.0984 264.5 0 205.402 0 132.5C0 59.5984 59.0984 0.5 132 0.5C204.902 0.5 264 59.5984 264 132.5ZM9.57407 132.5C9.57407 200.114 64.386 254.926 132 254.926C199.614 254.926 254.426 200.114 254.426 132.5C254.426 64.886 199.614 10.0741 132 10.0741C64.386 10.0741 9.57407 64.886 9.57407 132.5Z" fill="#EBEBEB"/>
<path d="M65.4814 240.936C64.099 243.19 64.8013 246.146 67.1035 247.445C85.9704 258.098 107.193 263.954 128.903 264.464C152.209 265.011 175.245 259.375 195.667 248.131C216.089 236.887 233.169 220.434 245.169 200.447C256.347 181.83 262.746 160.764 263.834 139.125C263.966 136.484 261.844 134.311 259.201 134.274C256.557 134.237 254.394 136.351 254.254 138.991C253.195 158.939 247.268 178.351 236.961 195.519C225.831 214.056 209.99 229.315 191.049 239.744C172.108 250.173 150.743 255.4 129.127 254.892C109.109 254.422 89.5358 249.05 72.1131 239.279C69.8072 237.985 66.8639 238.683 65.4814 240.936Z" fill="#361F7D"/>
<path d="M248.032 132.5C248.032 196.583 196.083 248.532 132 248.532C67.9172 248.532 15.9677 196.583 15.9677 132.5C15.9677 68.4172 67.9172 16.4678 132 16.4678C196.083 16.4678 248.032 68.4172 248.032 132.5ZM24.9811 132.5C24.9811 191.605 72.8951 239.519 132 239.519C191.105 239.519 239.019 191.605 239.019 132.5C239.019 73.3951 191.105 25.4811 132 25.4811C72.8951 25.4811 24.9811 73.3951 24.9811 132.5Z" fill="#EBEBEB"/>
<path d="M243.526 132.5C246.015 132.5 248.041 134.519 247.945 137.006C246.871 164.65 235.948 191.059 217.066 211.413C197.161 232.87 169.882 246.012 140.696 248.206C111.51 250.4 82.5737 241.482 59.6849 223.241C37.9732 205.939 23.2249 181.459 18.0314 154.287C17.5641 151.842 19.2664 149.542 21.7274 149.17C24.1884 148.798 26.4754 150.495 26.9507 152.938C31.7991 177.862 45.3687 200.307 65.3023 216.193C86.4131 233.017 113.102 241.241 140.021 239.218C166.94 237.195 192.099 225.073 210.458 205.283C227.793 186.596 237.856 162.375 238.924 137.006C239.029 134.519 241.037 132.5 243.526 132.5Z" fill="#774CC7"/>
<path d="M232.065 131.968C232.065 187.526 187.026 232.565 131.468 232.565C75.9097 232.565 30.871 187.526 30.871 131.968C30.871 76.4097 75.9097 31.371 131.468 31.371C187.026 31.371 232.065 76.4097 232.065 131.968ZM39.5653 131.968C39.5653 182.724 80.7114 223.87 131.468 223.87C182.224 223.87 223.37 182.724 223.37 131.968C223.37 81.2114 182.224 40.0653 131.468 40.0653C80.7114 40.0653 39.5653 81.2114 39.5653 131.968Z" fill="#EBEBEB"/>
<path d="M227.717 131.968C230.118 131.968 232.074 133.915 231.971 136.314C231.285 152.174 226.853 167.67 219.013 181.521C210.458 196.636 198.135 209.277 183.245 218.216C168.354 227.156 151.403 232.087 134.041 232.532C116.68 232.976 99.4984 228.918 84.1702 220.752C68.842 212.586 55.889 200.591 46.5719 185.934C37.2548 171.278 31.891 154.458 31.0027 137.113C30.1143 119.769 33.7316 102.489 41.5024 86.9572C48.624 72.7228 59.0118 60.4003 71.7922 50.9829C73.725 49.5587 76.4325 50.0957 77.7719 52.0882C79.1113 54.0807 78.5749 56.7736 76.6479 58.2057C65.1103 66.7803 55.7278 77.9555 49.2779 90.8473C42.1787 105.037 38.874 120.823 39.6856 136.669C40.4972 152.514 45.3974 167.88 53.9093 181.27C62.4211 194.66 74.2546 205.619 88.258 213.079C102.261 220.539 117.958 224.246 133.819 223.84C149.68 223.434 165.166 218.929 178.77 210.762C192.373 202.596 203.631 191.046 211.447 177.238C218.548 164.693 222.588 150.672 223.267 136.313C223.381 133.915 225.316 131.968 227.717 131.968Z" fill="#B887FF"/>
<path d="M218.226 131.435C218.226 179.645 179.145 218.726 130.935 218.726C82.7264 218.726 43.6452 179.645 43.6452 131.435C43.6452 83.2263 82.7264 44.1451 130.935 44.1451C179.145 44.1451 218.226 83.2263 218.226 131.435ZM52.3742 131.435C52.3742 174.824 87.5473 209.997 130.935 209.997C174.324 209.997 209.497 174.824 209.497 131.435C209.497 88.0473 174.324 52.8742 130.935 52.8742C87.5473 52.8742 52.3742 88.0473 52.3742 131.435Z" fill="#EBEBEB"/>
<path d="M209.469 158.066C211.752 158.84 212.985 161.324 212.098 163.565C205.837 179.381 195.076 193.057 181.103 202.87C165.937 213.52 147.776 219.068 129.247 218.709C110.719 218.351 92.7851 212.105 78.0428 200.876C63.3005 189.647 52.5145 174.017 47.2464 156.25C41.9783 138.482 42.5015 119.499 48.7403 102.049C54.9791 84.599 66.6096 69.5872 81.9481 59.1871C97.2865 48.7869 115.537 43.5383 134.057 44.201C151.12 44.8115 167.596 50.4108 181.467 60.2584C183.432 61.6538 183.752 64.4079 182.26 66.3012C180.768 68.1945 178.031 68.5089 176.057 67.1245C163.648 58.4179 148.956 53.4687 133.745 52.9244C117.077 52.328 100.651 57.0518 86.8468 66.4119C73.0422 75.772 62.5747 89.2827 56.9598 104.988C51.3449 120.693 50.8741 137.778 55.6153 153.768C60.3566 169.759 70.064 183.826 83.3321 193.932C96.6002 204.038 112.74 209.659 129.416 209.982C146.092 210.305 162.437 205.312 176.086 195.726C188.542 186.979 198.162 174.82 203.82 160.757C204.719 158.521 207.186 157.292 209.469 158.066Z" fill="#FFB87F"/>
<path d="M203.323 130.903C203.323 171.175 170.675 203.823 130.403 203.823C90.131 203.823 57.4839 171.175 57.4839 130.903C57.4839 90.631 90.131 57.9839 130.403 57.9839C170.675 57.9839 203.323 90.631 203.323 130.903ZM64.7758 130.903C64.7758 167.148 94.1582 196.531 130.403 196.531C166.648 196.531 196.031 167.148 196.031 130.903C196.031 94.6582 166.648 65.2758 130.403 65.2758C94.1582 65.2758 64.7758 94.6582 64.7758 130.903Z" fill="#EBEBEB"/>
<path d="M199.677 130.903C201.69 130.903 203.332 132.537 203.231 134.548C202.514 148.898 197.569 162.746 188.98 174.331C179.666 186.895 166.559 196.131 151.594 200.676C136.63 205.221 120.6 204.834 105.872 199.572C91.1443 194.311 78.4981 184.454 69.8005 171.456C61.1028 158.458 56.8145 143.008 57.5687 127.387C58.3229 111.766 64.0795 96.8006 73.9888 84.701C83.8981 72.6014 97.4351 64.0083 112.601 60.1902C126.587 56.6695 141.274 57.381 154.813 62.1908C156.71 62.8649 157.594 65.0057 156.826 66.8671C156.058 68.7285 153.929 69.6045 152.028 68.941C139.939 64.7216 126.85 64.1226 114.382 67.2615C100.732 70.6978 88.5487 78.4316 79.6303 89.3212C70.7119 100.211 65.5309 113.679 64.8522 127.739C64.1734 141.798 68.0328 155.703 75.8607 167.401C83.6886 179.099 95.0702 187.97 108.325 192.706C121.581 197.441 136.007 197.789 149.475 193.698C162.943 189.608 174.739 181.296 183.122 169.989C190.78 159.66 195.219 147.332 195.929 134.548C196.041 132.537 197.663 130.903 199.677 130.903Z" fill="#FF8F65"/>
</svg>
