<svg width="26" height="26" viewBox="0 0 26 26" fill="none" xmlns="http://www.w3.org/2000/svg">
<path d="M13 1C10.6266 1 8.30655 1.70379 6.33316 3.02236C4.35977 4.34094 2.8217 6.21509 1.91345 8.4078C1.0052 10.6005 0.767559 13.0133 1.23058 15.3411C1.6936 17.6689 2.83649 19.8071 4.51472 21.4853C6.19295 23.1635 8.33115 24.3064 10.6589 24.7694C12.9867 25.2324 15.3995 24.9948 17.5922 24.0866C19.7849 23.1783 21.6591 21.6402 22.9776 19.6668C24.2962 17.6935 25 15.3734 25 13C25 9.8174 23.7357 6.76516 21.4853 4.51472C19.2349 2.26428 16.1826 1 13 1Z" stroke="#6441A5" stroke-width="2"/>
</svg>
