<svg width="26" height="26" viewBox="0 0 26 26" fill="none" xmlns="http://www.w3.org/2000/svg">
<path fill-rule="evenodd" clip-rule="evenodd" d="M8.70701 13.293C8.5184 13.1108 8.2658 13.01 8.0036 13.0123C7.74141 13.0146 7.4906 13.1198 7.30519 13.3052C7.11978 13.4906 7.01461 13.7414 7.01233 14.0036C7.01005 14.2658 7.11085 14.5184 7.29301 14.707L7.31758 14.7316C7.31759 14.7316 7.31757 14.7316 7.31758 14.7316L10.293 17.707C10.4805 17.8945 10.7348 17.9998 11 17.9998C11.2652 17.9998 11.5195 17.8945 11.707 17.707L18.707 10.707C18.8892 10.5184 18.99 10.2658 18.9877 10.0036C18.9854 9.7414 18.8802 9.49059 18.6948 9.30518C18.5094 9.11977 18.2586 9.0146 17.9964 9.01233C17.7342 9.01005 17.4816 9.11084 17.293 9.293L10.9998 15.5858L8.70701 13.293ZM5.77759 2.19089C7.91543 0.762436 10.4288 0 13 0C16.4478 0 19.7544 1.36964 22.1924 3.80761C24.6304 6.24558 26 9.55219 26 13C26 15.5712 25.2376 18.0846 23.8091 20.2224C22.3807 22.3603 20.3503 24.0265 17.9749 25.0104C15.5995 25.9944 12.9856 26.2518 10.4638 25.7502C7.94208 25.2486 5.6257 24.0105 3.80762 22.1924C1.98954 20.3743 0.751405 18.0579 0.249797 15.5362C-0.251811 13.0144 0.0056327 10.4006 0.989572 8.02512C1.97351 5.64968 3.63975 3.61935 5.77759 2.19089ZM6.88873 3.85383C8.69767 2.64514 10.8244 2 13 2C15.9174 2 18.7153 3.15893 20.7782 5.22183C22.8411 7.28473 24 10.0826 24 13C24 15.1756 23.3549 17.3023 22.1462 19.1113C20.9375 20.9202 19.2195 22.3301 17.2095 23.1627C15.1995 23.9952 12.9878 24.2131 10.854 23.7886C8.72022 23.3642 6.76021 22.3166 5.22183 20.7782C3.68345 19.2398 2.63581 17.2798 2.21137 15.146C1.78693 13.0122 2.00477 10.8005 2.83733 8.79048C3.66989 6.78049 5.07979 5.06253 6.88873 3.85383Z" fill="#6441A5"/>
</svg>
