<svg width="40" height="41" viewBox="0 0 40 41" fill="none" xmlns="http://www.w3.org/2000/svg">
<path d="M21.1 19.9125L8.74999 7.57499C8.51086 7.3702 8.20327 7.26319 7.88867 7.27535C7.57408 7.2875 7.27566 7.41791 7.05304 7.64053C6.83042 7.86315 6.7 8.16157 6.68785 8.47617C6.6757 8.79076 6.78271 9.09836 6.98749 9.33749L18.3125 20.6625L7.31249 31.6625C7.07968 31.8967 6.949 32.2135 6.949 32.5437C6.949 32.874 7.07968 33.1908 7.31249 33.425C7.42869 33.5421 7.56695 33.6351 7.71927 33.6986C7.87159 33.7621 8.03498 33.7947 8.19999 33.7947C8.36501 33.7947 8.52839 33.7621 8.68071 33.6986C8.83304 33.6351 8.97129 33.5421 9.08749 33.425L21.1 21.4125C21.2985 21.2133 21.4099 20.9436 21.4099 20.6625C21.4099 20.3813 21.2985 20.1116 21.1 19.9125Z" fill="#392E5C"/>
<path d="M33.075 19.9125L20.725 7.57499C20.4859 7.3702 20.1783 7.26319 19.8637 7.27535C19.5491 7.2875 19.2507 7.41791 19.028 7.64053C18.8054 7.86315 18.675 8.16157 18.6629 8.47617C18.6507 8.79076 18.7577 9.09836 18.9625 9.33749L30.2875 20.6625L19.2875 31.6625C19.0547 31.8967 18.924 32.2135 18.924 32.5437C18.924 32.874 19.0547 33.1908 19.2875 33.425C19.5217 33.6578 19.8385 33.7885 20.1687 33.7885C20.499 33.7885 20.8158 33.6578 21.05 33.425L33.075 21.4125C33.2735 21.2133 33.3849 20.9436 33.3849 20.6625C33.3849 20.3813 33.2735 20.1116 33.075 19.9125Z" fill="#392E5C"/>
</svg>
