<svg width="202" height="42" viewBox="0 0 202 42" fill="none" xmlns="http://www.w3.org/2000/svg">
<path d="M15.5177 41.0476C9.6723 35.9402 6.31858 28.5564 6.31858 20.7941V11.7312C6.31858 8.77481 7.43709 5.92791 9.4495 3.76217L10.2536 2.89677C10.8767 2.22627 11.6228 1.68175 12.4513 1.29286L6.31858 3.40399L6.16217 3.46034C2.88833 4.67367 0.473555 7.70597 0.0649451 11.1792L0 11.7312V30.5475L0.221733 32.1551C0.555932 34.5781 1.83198 36.7715 3.77305 38.2597L4.22886 38.6091C5.59511 39.6566 13.805 40.8726 15.5177 41.0476Z" fill="url(#paint0_linear_605_174)"/>
<path fill-rule="evenodd" clip-rule="evenodd" d="M0.0505219 11.2178H6.40329L6.46601 11.1224C6.58983 8.35583 7.70657 5.71948 9.62099 3.70257L10.4669 2.81141C11.0251 2.22328 11.6766 1.73263 12.3944 1.35886L12.207 1.37238L6.45447 3.31096L6.2947 3.36731C2.95045 4.58064 0.483745 7.61294 0.0663473 11.0861L0.0505219 11.2178Z" fill="url(#paint1_linear_605_174)"/>
<path fill-rule="evenodd" clip-rule="evenodd" d="M13.7696 40.8205L14.5885 40.8618L6.36503 30.4547H0V30.5475L0.221733 32.1551C0.555932 34.5781 1.83198 36.7715 3.77305 38.2597L4.22886 38.6091C5.31614 39.4427 10.7377 40.3831 13.7696 40.8205Z" fill="url(#paint2_linear_605_174)" fill-opacity="0.3"/>
<g filter="url(#filter0_ii_605_174)">
<path fill-rule="evenodd" clip-rule="evenodd" d="M13.3392 40.5609C14.413 40.9141 15.5361 41.094 16.6665 41.094H31.3462C32.6123 41.094 33.8651 40.8352 35.0276 40.3336L35.8603 39.9743C38.5019 38.8344 40.4665 36.5351 41.1803 33.748L41.7094 31.6819C41.9024 30.9286 42 30.1542 42 29.3766V13.7508C42 13.3032 41.9676 12.8562 41.9032 12.4133L41.6494 10.6684C41.1757 7.41175 39.0148 4.64859 35.9683 3.40399L34.6483 2.86471C33.7323 2.49049 32.7624 2.26498 31.7752 2.19671L17.2831 1.09182L14.6549 0.962029C13.9057 0.92503 13.1566 1.03749 12.4513 1.29286C11.6227 1.68175 10.8766 2.22627 10.2536 2.89677L9.44946 3.76217C7.43705 5.92791 6.31854 8.77481 6.31854 11.7312V31.6979C6.31854 32.5681 6.44396 33.4336 6.69092 34.268C7.5343 37.1172 9.72196 39.3714 12.5447 40.2997L13.3392 40.5609Z" fill="url(#paint3_linear_605_174)"/>
</g>
<g filter="url(#filter1_dd_605_174)">
<path d="M31.7759 16.2535L27.2404 16.5061C26.995 16.5198 26.7873 16.354 26.7174 16.1239C26.6097 15.7693 26.4455 15.4276 26.2249 15.0986C25.931 14.6462 25.5098 14.2716 24.9613 13.9747C24.4128 13.6778 23.7221 13.5076 22.8892 13.4639C21.7689 13.4052 20.8029 13.5979 19.9913 14.042C19.1896 14.4866 18.7554 15.0945 18.6887 15.8656C18.6129 16.527 18.8023 17.0782 19.2568 17.5191C19.7211 17.9606 20.5201 18.345 21.6536 18.6726L25.4676 19.7067C27.5828 20.2843 29.1158 21.1045 30.0665 22.1673C31.0272 23.2306 31.4314 24.5776 31.2792 26.2083C31.1268 27.6403 30.5796 28.8828 29.6377 29.9358C28.7067 30.9795 27.477 31.7691 25.9487 32.3047C24.4204 32.8404 22.7044 33.0583 20.8008 32.9585C18.0048 32.812 15.8121 32.1112 14.2227 30.856C12.7328 29.6693 11.8893 28.1102 11.6924 26.1787C11.6692 25.9517 11.8172 25.7368 12.0382 25.6597L14.2 24.9059L16.9618 25.5622C17.0976 26.6022 17.5261 27.4042 18.2474 27.9684C18.9686 28.5325 19.949 28.8471 21.1883 28.912C22.4673 28.9791 23.5195 28.771 24.345 28.288C25.1803 27.8054 25.6363 27.1788 25.713 26.4082C25.7778 25.7561 25.5785 25.2044 25.1151 24.7531C24.6616 24.3023 23.9207 23.9357 22.8924 23.6534L19.0769 22.6342C16.9309 22.0649 15.386 21.2142 14.4422 20.0823C13.4993 18.9404 13.1154 17.5399 13.2903 15.8806C13.42 14.4772 13.9226 13.282 14.7981 12.295C15.6845 11.2987 16.8498 10.5554 18.2939 10.065C19.7489 9.56522 21.3885 9.36315 23.2128 9.45876C25.8898 9.59905 27.9402 10.2775 29.364 11.4942C30.5982 12.5421 31.3657 13.8635 31.6666 15.4586C31.7153 15.7164 31.7517 15.9814 31.7759 16.2535Z" fill="#261B47"/>
<path d="M31.7759 16.2535L33.7148 15.2505L31.6244 15.2505L31.6666 15.4586C31.7153 15.7164 31.7517 15.9814 31.7759 16.2535Z" fill="#261B47"/>
<g filter="url(#filter2_i_605_174)">
<path d="M33.9256 14.7976C33.9694 15.0824 33.7399 15.3428 33.4474 15.3591L29.4543 15.5815C29.2089 15.5951 29.0012 15.4294 28.9313 15.1992C28.8236 14.8447 28.6594 14.5029 28.4387 14.174C28.1449 13.7216 27.7237 13.3469 27.1752 13.0501C26.6266 12.7532 25.9359 12.5829 25.1031 12.5393C23.9827 12.4805 23.0168 12.6732 22.2052 13.1173C21.4035 13.5619 20.9693 14.1698 20.9026 14.9409C20.8268 15.6024 21.0162 16.1535 21.4706 16.5945C21.935 17.0359 22.734 17.4204 23.8675 17.7479L27.6814 18.782C29.7967 19.3597 31.3297 20.1799 32.2804 21.2427C33.241 22.306 33.6453 23.653 33.493 25.2836C33.3406 26.7157 32.7935 27.9582 31.8516 29.0112C30.9206 30.0548 29.6909 30.8445 28.1626 31.3801C26.6343 31.9157 24.9183 32.1337 23.0147 32.0339C20.2187 31.8874 18.026 31.1865 16.4366 29.9313C14.9818 28.7727 14.1433 27.2589 13.9213 25.39C13.8877 25.1072 14.119 24.8558 14.4076 24.8434L18.7356 24.6566C18.9874 24.6457 19.1966 24.8228 19.2508 25.0642C19.4384 25.8995 19.8419 26.5593 20.4612 27.0437C21.1825 27.6079 22.1628 27.9224 23.4022 27.9874C24.6812 28.0544 25.7334 27.8464 26.5588 27.3633C27.3942 26.8807 27.8502 26.2541 27.9268 25.4835C27.9917 24.8315 27.7924 24.2798 27.329 23.8285C26.8755 23.3776 26.1346 23.0111 25.1062 22.7288L21.2908 21.7095C19.1448 21.1402 17.5999 20.2896 16.656 19.1576C15.7132 18.0158 15.3292 16.6152 15.5042 14.956C15.6338 13.5525 16.1364 12.3573 17.012 11.3704C17.8984 10.3741 19.0637 9.63072 20.5078 9.14032C21.9627 8.64057 23.6024 8.4385 25.4267 8.5341C28.1037 8.6744 30.1541 9.3529 31.5779 10.5696C32.8795 11.6746 33.662 13.084 33.9256 14.7976Z" fill="white"/>
</g>
</g>
<path d="M58.2734 17.8984C58.2005 17.2161 57.8932 16.6849 57.3516 16.3047C56.8151 15.9244 56.1172 15.7343 55.2578 15.7343C54.6536 15.7343 54.1354 15.8255 53.7031 16.0078C53.2708 16.1901 52.9401 16.4375 52.7109 16.75C52.4818 17.0625 52.3646 17.4192 52.3594 17.8203C52.3594 18.1536 52.4349 18.4427 52.5859 18.6875C52.7422 18.9323 52.9531 19.1406 53.2188 19.3125C53.4844 19.4791 53.7786 19.6198 54.1016 19.7343C54.4245 19.8489 54.75 19.9453 55.0781 20.0234L56.5781 20.3984C57.1823 20.539 57.763 20.7291 58.3203 20.9687C58.8828 21.2083 59.3854 21.5104 59.8281 21.875C60.276 22.2396 60.6302 22.6797 60.8906 23.1953C61.151 23.7109 61.2813 24.3151 61.2813 25.0078C61.2813 25.9453 61.0417 26.7708 60.5625 27.4843C60.0833 28.1927 59.3906 28.7474 58.4844 29.1484C57.5833 29.5442 56.4922 29.7422 55.2109 29.7422C53.9661 29.7422 52.8854 29.5494 51.9688 29.164C51.0573 28.7786 50.3438 28.2161 49.8281 27.4765C49.3177 26.7369 49.0417 25.8359 49 24.7734H51.8516C51.8932 25.3307 52.0651 25.7942 52.3672 26.164C52.6693 26.5338 53.0625 26.8099 53.5469 26.9922C54.0365 27.1744 54.5833 27.2656 55.1875 27.2656C55.8177 27.2656 56.3698 27.1718 56.8438 26.9843C57.3229 26.7916 57.6979 26.526 57.9688 26.1875C58.2396 25.8437 58.3776 25.4427 58.3828 24.9843C58.3776 24.5677 58.2552 24.2239 58.0156 23.9531C57.776 23.6771 57.4401 23.4479 57.0078 23.2656C56.5807 23.0781 56.0807 22.9114 55.5078 22.7656L53.6875 22.2968C52.3698 21.9583 51.3281 21.4453 50.5625 20.7578C49.8021 20.0651 49.4219 19.1458 49.4219 18C49.4219 17.0573 49.6771 16.2317 50.1875 15.5234C50.7031 14.8151 51.4036 14.2656 52.2891 13.875C53.1745 13.4791 54.1771 13.2812 55.2969 13.2812C56.4323 13.2812 57.4271 13.4791 58.2813 13.875C59.1406 14.2656 59.8151 14.8099 60.3047 15.5078C60.7943 16.2005 61.0469 16.9974 61.0625 17.8984H58.2734ZM69.7324 17.5V19.6875H62.834V17.5H69.7324ZM64.5371 14.625H67.3652V25.8906C67.3652 26.2708 67.4225 26.5625 67.5371 26.7656C67.6569 26.9635 67.8132 27.0989 68.0059 27.1718C68.1986 27.2448 68.4121 27.2812 68.6465 27.2812C68.8236 27.2812 68.985 27.2682 69.1309 27.2422C69.2819 27.2161 69.3965 27.1927 69.4746 27.1718L69.9512 29.3828C69.8001 29.4349 69.584 29.4922 69.3027 29.5547C69.0267 29.6172 68.6882 29.6536 68.2871 29.664C67.5788 29.6849 66.9408 29.5781 66.373 29.3437C65.8053 29.1041 65.3548 28.7343 65.0215 28.2343C64.6934 27.7343 64.5319 27.1093 64.5371 26.3593V14.625ZM72.0977 29.5V17.5H74.8398V19.5H74.9648C75.1836 18.8073 75.5586 18.2734 76.0898 17.8984C76.6263 17.5182 77.2383 17.3281 77.9258 17.3281C78.082 17.3281 78.2565 17.3359 78.4492 17.3515C78.6471 17.3619 78.8112 17.3802 78.9414 17.4062V20.0078C78.8216 19.9661 78.6315 19.9297 78.3711 19.8984C78.1159 19.8619 77.8685 19.8437 77.6289 19.8437C77.1133 19.8437 76.6497 19.9557 76.2383 20.1797C75.832 20.3984 75.5117 20.7031 75.2773 21.0937C75.043 21.4843 74.9258 21.9349 74.9258 22.4453V29.5H72.0977ZM85.6387 29.7343C84.4355 29.7343 83.3965 29.4843 82.5215 28.9843C81.6517 28.4791 80.9824 27.7656 80.5137 26.8437C80.0449 25.9166 79.8105 24.8255 79.8105 23.5703C79.8105 22.3359 80.0449 21.2526 80.5137 20.3203C80.9876 19.3828 81.6491 18.6536 82.498 18.1328C83.347 17.6067 84.3444 17.3437 85.4902 17.3437C86.2298 17.3437 86.9277 17.4635 87.584 17.7031C88.2454 17.9375 88.8288 18.3021 89.334 18.7968C89.8444 19.2916 90.2454 19.9218 90.5371 20.6875C90.8288 21.4479 90.9746 22.3541 90.9746 23.4062V24.2734H81.1387V22.3672H88.2637C88.2585 21.8255 88.1413 21.3437 87.9121 20.9218C87.6829 20.4948 87.3626 20.1588 86.9512 19.914C86.5449 19.6692 86.071 19.5468 85.5293 19.5468C84.9512 19.5468 84.4434 19.6875 84.0059 19.9687C83.5684 20.2448 83.2272 20.6093 82.9824 21.0625C82.7428 21.5104 82.6204 22.0026 82.6152 22.539V24.2031C82.6152 24.901 82.7428 25.5 82.998 26C83.2533 26.4948 83.61 26.875 84.0684 27.1406C84.5267 27.401 85.0632 27.5312 85.6777 27.5312C86.0892 27.5312 86.4616 27.4739 86.7949 27.3593C87.1283 27.2396 87.4173 27.0651 87.6621 26.8359C87.9069 26.6067 88.0918 26.3229 88.2168 25.9843L90.8574 26.2812C90.6908 26.9791 90.373 27.5885 89.9043 28.1093C89.4408 28.625 88.847 29.026 88.123 29.3125C87.3991 29.5937 86.571 29.7343 85.6387 29.7343ZM96.8203 29.7422C96.0599 29.7422 95.375 29.6067 94.7656 29.3359C94.1615 29.0599 93.6823 28.6536 93.3281 28.1172C92.9792 27.5807 92.8047 26.9192 92.8047 26.1328C92.8047 25.4557 92.9297 24.8958 93.1797 24.4531C93.4297 24.0104 93.7708 23.6562 94.2031 23.3906C94.6354 23.125 95.1224 22.9244 95.6641 22.789C96.2109 22.6484 96.776 22.5468 97.3594 22.4843C98.0625 22.4114 98.6328 22.3463 99.0703 22.289C99.5078 22.2265 99.8255 22.1328 100.023 22.0078C100.227 21.8776 100.328 21.6771 100.328 21.4062V21.3593C100.328 20.7708 100.154 20.3151 99.8047 19.9922C99.4557 19.6692 98.9531 19.5078 98.2969 19.5078C97.6042 19.5078 97.0547 19.6588 96.6484 19.9609C96.2474 20.263 95.9766 20.6198 95.8359 21.0312L93.1953 20.6562C93.4036 19.9271 93.7474 19.3177 94.2266 18.8281C94.7057 18.3333 95.2917 17.9635 95.9844 17.7187C96.6771 17.4687 97.4427 17.3437 98.2813 17.3437C98.8594 17.3437 99.4349 17.4114 100.008 17.5468C100.581 17.6823 101.104 17.9062 101.578 18.2187C102.052 18.526 102.432 18.9453 102.719 19.4765C103.01 20.0078 103.156 20.6718 103.156 21.4687V29.5H100.438V27.8515H100.344C100.172 28.1849 99.9297 28.4974 99.6172 28.789C99.3099 29.0755 98.9219 29.3073 98.4531 29.4843C97.9896 29.6562 97.4453 29.7422 96.8203 29.7422ZM97.5547 27.664C98.1224 27.664 98.6146 27.5521 99.0313 27.3281C99.4479 27.0989 99.7682 26.7968 99.9922 26.4218C100.221 26.0468 100.336 25.638 100.336 25.1953V23.7812C100.247 23.8541 100.096 23.9218 99.8828 23.9843C99.6745 24.0468 99.4401 24.1015 99.1797 24.1484C98.9193 24.1953 98.6615 24.2369 98.4063 24.2734C98.151 24.3099 97.9297 24.3411 97.7422 24.3672C97.3203 24.4244 96.9427 24.5182 96.6094 24.6484C96.276 24.7786 96.013 24.9609 95.8203 25.1953C95.6276 25.4244 95.5313 25.7213 95.5313 26.0859C95.5313 26.6067 95.7214 27 96.1016 27.2656C96.4818 27.5312 96.9661 27.664 97.5547 27.664ZM106 29.5V17.5H108.703V19.539H108.844C109.094 18.8515 109.508 18.3151 110.086 17.9297C110.664 17.539 111.354 17.3437 112.156 17.3437C112.969 17.3437 113.654 17.5416 114.211 17.9375C114.773 18.3281 115.169 18.8619 115.398 19.539H115.523C115.789 18.8724 116.237 18.3411 116.867 17.9453C117.503 17.5442 118.255 17.3437 119.125 17.3437C120.229 17.3437 121.13 17.6927 121.828 18.3906C122.526 19.0885 122.875 20.1067 122.875 21.4453V29.5H120.039V21.8828C120.039 21.138 119.841 20.5937 119.445 20.25C119.049 19.901 118.565 19.7265 117.992 19.7265C117.31 19.7265 116.776 19.9401 116.391 20.3672C116.01 20.789 115.82 21.3385 115.82 22.0156V29.5H113.047V21.7656C113.047 21.1458 112.859 20.651 112.484 20.2812C112.115 19.9114 111.63 19.7265 111.031 19.7265C110.625 19.7265 110.255 19.8307 109.922 20.039C109.589 20.2422 109.323 20.5312 109.125 20.9062C108.927 21.276 108.828 21.7083 108.828 22.2031V29.5H106ZM125.869 29.5V13.5H131.994C133.15 13.5 134.111 13.6823 134.877 14.0468C135.648 14.4062 136.223 14.8984 136.604 15.5234C136.989 16.1484 137.182 16.8567 137.182 17.6484C137.182 18.2994 137.057 18.8567 136.807 19.3203C136.557 19.7786 136.221 20.151 135.799 20.4375C135.377 20.7239 134.906 20.9297 134.385 21.0547V21.2109C134.952 21.2422 135.497 21.4166 136.018 21.7343C136.544 22.0468 136.973 22.4896 137.307 23.0625C137.64 23.6354 137.807 24.3281 137.807 25.1406C137.807 25.9687 137.606 26.7135 137.205 27.375C136.804 28.0312 136.2 28.5494 135.393 28.9297C134.585 29.3099 133.57 29.5 132.346 29.5H125.869ZM128.768 27.0781H131.885C132.937 27.0781 133.695 26.8776 134.158 26.4765C134.627 26.0703 134.861 25.5494 134.861 24.914C134.861 24.4401 134.744 24.013 134.51 23.6328C134.275 23.2474 133.942 22.9453 133.51 22.7265C133.077 22.5026 132.562 22.3906 131.963 22.3906H128.768V27.0781ZM128.768 20.3047H131.635C132.135 20.3047 132.585 20.2135 132.986 20.0312C133.387 19.8437 133.702 19.5807 133.932 19.2422C134.166 18.8984 134.283 18.4922 134.283 18.0234C134.283 17.4036 134.064 16.8932 133.627 16.4922C133.195 16.0911 132.551 15.8906 131.697 15.8906H128.768V20.3047ZM145.438 29.7343C144.266 29.7343 143.25 29.4765 142.391 28.9609C141.531 28.4453 140.865 27.7239 140.391 26.7968C139.922 25.8698 139.688 24.7864 139.688 23.5468C139.688 22.3073 139.922 21.2213 140.391 20.289C140.865 19.3567 141.531 18.6328 142.391 18.1172C143.25 17.6015 144.266 17.3437 145.438 17.3437C146.609 17.3437 147.625 17.6015 148.484 18.1172C149.344 18.6328 150.008 19.3567 150.477 20.289C150.951 21.2213 151.188 22.3073 151.188 23.5468C151.188 24.7864 150.951 25.8698 150.477 26.7968C150.008 27.7239 149.344 28.4453 148.484 28.9609C147.625 29.4765 146.609 29.7343 145.438 29.7343ZM145.453 27.4687C146.089 27.4687 146.62 27.2942 147.047 26.9453C147.474 26.5911 147.792 26.1172 148 25.5234C148.214 24.9297 148.32 24.2682 148.32 23.539C148.32 22.8047 148.214 22.1406 148 21.5468C147.792 20.9479 147.474 20.4713 147.047 20.1172C146.62 19.763 146.089 19.5859 145.453 19.5859C144.802 19.5859 144.26 19.763 143.828 20.1172C143.401 20.4713 143.081 20.9479 142.867 21.5468C142.659 22.1406 142.555 22.8047 142.555 23.539C142.555 24.2682 142.659 24.9297 142.867 25.5234C143.081 26.1172 143.401 26.5911 143.828 26.9453C144.26 27.2942 144.802 27.4687 145.453 27.4687ZM158.822 29.7343C157.65 29.7343 156.635 29.4765 155.775 28.9609C154.916 28.4453 154.249 27.7239 153.775 26.7968C153.307 25.8698 153.072 24.7864 153.072 23.5468C153.072 22.3073 153.307 21.2213 153.775 20.289C154.249 19.3567 154.916 18.6328 155.775 18.1172C156.635 17.6015 157.65 17.3437 158.822 17.3437C159.994 17.3437 161.01 17.6015 161.869 18.1172C162.729 18.6328 163.393 19.3567 163.861 20.289C164.335 21.2213 164.572 22.3073 164.572 23.5468C164.572 24.7864 164.335 25.8698 163.861 26.7968C163.393 27.7239 162.729 28.4453 161.869 28.9609C161.01 29.4765 159.994 29.7343 158.822 29.7343ZM158.838 27.4687C159.473 27.4687 160.005 27.2942 160.432 26.9453C160.859 26.5911 161.176 26.1172 161.385 25.5234C161.598 24.9297 161.705 24.2682 161.705 23.539C161.705 22.8047 161.598 22.1406 161.385 21.5468C161.176 20.9479 160.859 20.4713 160.432 20.1172C160.005 19.763 159.473 19.5859 158.838 19.5859C158.187 19.5859 157.645 19.763 157.213 20.1172C156.786 20.4713 156.465 20.9479 156.252 21.5468C156.044 22.1406 155.939 22.8047 155.939 23.539C155.939 24.2682 156.044 24.9297 156.252 25.5234C156.465 26.1172 156.786 26.5911 157.213 26.9453C157.645 27.2942 158.187 27.4687 158.838 27.4687ZM176.457 20.6718L173.879 20.9531C173.806 20.6927 173.678 20.4479 173.496 20.2187C173.319 19.9896 173.079 19.8047 172.777 19.664C172.475 19.5234 172.105 19.4531 171.668 19.4531C171.079 19.4531 170.585 19.5807 170.184 19.8359C169.788 20.0911 169.592 20.4218 169.598 20.8281C169.592 21.1771 169.72 21.4609 169.98 21.6797C170.246 21.8984 170.684 22.0781 171.293 22.2187L173.34 22.6562C174.475 22.901 175.319 23.289 175.871 23.8203C176.428 24.3515 176.71 25.0468 176.715 25.9062C176.71 26.6614 176.488 27.3281 176.051 27.9062C175.618 28.4791 175.017 28.9271 174.246 29.25C173.475 29.5729 172.59 29.7343 171.59 29.7343C170.121 29.7343 168.939 29.4271 168.043 28.8125C167.147 28.1927 166.613 27.3307 166.441 26.2265L169.199 25.9609C169.324 26.5026 169.59 26.9114 169.996 27.1875C170.402 27.4635 170.931 27.6015 171.582 27.6015C172.254 27.6015 172.793 27.4635 173.199 27.1875C173.611 26.9114 173.816 26.5703 173.816 26.164C173.816 25.8203 173.684 25.5364 173.418 25.3125C173.158 25.0885 172.751 24.9166 172.199 24.7968L170.152 24.3672C169.001 24.1276 168.15 23.7239 167.598 23.1562C167.046 22.5833 166.772 21.8593 166.777 20.9843C166.772 20.2448 166.973 19.6041 167.379 19.0625C167.79 18.5156 168.361 18.0937 169.09 17.7968C169.824 17.4948 170.671 17.3437 171.629 17.3437C173.035 17.3437 174.142 17.6432 174.949 18.2422C175.762 18.8411 176.264 19.651 176.457 20.6718ZM185.039 17.5V19.6875H178.141V17.5H185.039ZM179.844 14.625H182.672V25.8906C182.672 26.2708 182.729 26.5625 182.844 26.7656C182.964 26.9635 183.12 27.0989 183.313 27.1718C183.505 27.2448 183.719 27.2812 183.953 27.2812C184.13 27.2812 184.292 27.2682 184.438 27.2422C184.589 27.2161 184.703 27.1927 184.781 27.1718L185.258 29.3828C185.107 29.4349 184.891 29.4922 184.609 29.5547C184.333 29.6172 183.995 29.6536 183.594 29.664C182.885 29.6849 182.247 29.5781 181.68 29.3437C181.112 29.1041 180.661 28.7343 180.328 28.2343C180 27.7343 179.839 27.1093 179.844 26.3593V14.625Z" fill="black"/>
<g filter="url(#filter3_i_605_174)">
<rect x="192" y="24" width="7" height="7" rx="3.5" fill="#7943D6"/>
</g>
<defs>
<filter id="filter0_ii_605_174" x="6.31854" y="0.455139" width="36.1814" height="41.6389" filterUnits="userSpaceOnUse" color-interpolation-filters="sRGB">
<feFlood flood-opacity="0" result="BackgroundImageFix"/>
<feBlend mode="normal" in="SourceGraphic" in2="BackgroundImageFix" result="shape"/>
<feColorMatrix in="SourceAlpha" type="matrix" values="0 0 0 0 0 0 0 0 0 0 0 0 0 0 0 0 0 0 127 0" result="hardAlpha"/>
<feOffset dx="0.5" dy="1"/>
<feGaussianBlur stdDeviation="0.5"/>
<feComposite in2="hardAlpha" operator="arithmetic" k2="-1" k3="1"/>
<feColorMatrix type="matrix" values="0 0 0 0 0.644265 0 0 0 0 0.503323 0 0 0 0 0.879167 0 0 0 1 0"/>
<feBlend mode="normal" in2="shape" result="effect1_innerShadow_605_174"/>
<feColorMatrix in="SourceAlpha" type="matrix" values="0 0 0 0 0 0 0 0 0 0 0 0 0 0 0 0 0 0 127 0" result="hardAlpha"/>
<feOffset dy="-0.5"/>
<feGaussianBlur stdDeviation="0.5"/>
<feComposite in2="hardAlpha" operator="arithmetic" k2="-1" k3="1"/>
<feColorMatrix type="matrix" values="0 0 0 0 0.210486 0 0 0 0 0.0986563 0 0 0 0 0.4125 0 0 0 1 0"/>
<feBlend mode="normal" in2="effect1_innerShadow_605_174" result="effect2_innerShadow_605_174"/>
</filter>
<filter id="filter1_dd_605_174" x="7.69001" y="7.51108" width="30.241" height="33.471" filterUnits="userSpaceOnUse" color-interpolation-filters="sRGB">
<feFlood flood-opacity="0" result="BackgroundImageFix"/>
<feColorMatrix in="SourceAlpha" type="matrix" values="0 0 0 0 0 0 0 0 0 0 0 0 0 0 0 0 0 0 127 0" result="hardAlpha"/>
<feOffset dx="-1" dy="1"/>
<feGaussianBlur stdDeviation="1"/>
<feComposite in2="hardAlpha" operator="out"/>
<feColorMatrix type="matrix" values="0 0 0 0 0.14902 0 0 0 0 0.105882 0 0 0 0 0.278431 0 0 0 0.8 0"/>
<feBlend mode="normal" in2="BackgroundImageFix" result="effect1_dropShadow_605_174"/>
<feColorMatrix in="SourceAlpha" type="matrix" values="0 0 0 0 0 0 0 0 0 0 0 0 0 0 0 0 0 0 127 0" result="hardAlpha"/>
<feOffset dy="4"/>
<feGaussianBlur stdDeviation="2"/>
<feComposite in2="hardAlpha" operator="out"/>
<feColorMatrix type="matrix" values="0 0 0 0 0 0 0 0 0 0 0 0 0 0 0 0 0 0 0.25 0"/>
<feBlend mode="normal" in2="effect1_dropShadow_605_174" result="effect2_dropShadow_605_174"/>
<feBlend mode="normal" in="SourceGraphic" in2="effect2_dropShadow_605_174" result="shape"/>
</filter>
<filter id="filter2_i_605_174" x="13.918" y="8.01108" width="20.013" height="24.0463" filterUnits="userSpaceOnUse" color-interpolation-filters="sRGB">
<feFlood flood-opacity="0" result="BackgroundImageFix"/>
<feBlend mode="normal" in="SourceGraphic" in2="BackgroundImageFix" result="shape"/>
<feColorMatrix in="SourceAlpha" type="matrix" values="0 0 0 0 0 0 0 0 0 0 0 0 0 0 0 0 0 0 127 0" result="hardAlpha"/>
<feOffset dy="-0.5"/>
<feGaussianBlur stdDeviation="0.25"/>
<feComposite in2="hardAlpha" operator="arithmetic" k2="-1" k3="1"/>
<feColorMatrix type="matrix" values="0 0 0 0 0.223529 0 0 0 0 0.180392 0 0 0 0 0.360784 0 0 0 0.6 0"/>
<feBlend mode="normal" in2="shape" result="effect1_innerShadow_605_174"/>
</filter>
<filter id="filter3_i_605_174" x="192" y="23" width="8" height="8" filterUnits="userSpaceOnUse" color-interpolation-filters="sRGB">
<feFlood flood-opacity="0" result="BackgroundImageFix"/>
<feBlend mode="normal" in="SourceGraphic" in2="BackgroundImageFix" result="shape"/>
<feColorMatrix in="SourceAlpha" type="matrix" values="0 0 0 0 0 0 0 0 0 0 0 0 0 0 0 0 0 0 127 0" result="hardAlpha"/>
<feOffset dx="1" dy="-1"/>
<feGaussianBlur stdDeviation="0.5"/>
<feComposite in2="hardAlpha" operator="arithmetic" k2="-1" k3="1"/>
<feColorMatrix type="matrix" values="0 0 0 0 0.25098 0 0 0 0 0.152941 0 0 0 0 0.454902 0 0 0 1 0"/>
<feBlend mode="normal" in2="shape" result="effect1_innerShadow_605_174"/>
</filter>
<linearGradient id="paint0_linear_605_174" x1="8.64159" y1="0.905975" x2="8.64159" y2="41.0476" gradientUnits="userSpaceOnUse">
<stop stop-color="#482783"/>
<stop offset="1" stop-color="#280B5E"/>
</linearGradient>
<linearGradient id="paint1_linear_605_174" x1="6.16333" y1="1.37046" x2="6.16333" y2="11.2178" gradientUnits="userSpaceOnUse">
<stop stop-color="#8B61D1"/>
<stop offset="0.357292" stop-color="#9471CF"/>
<stop offset="1" stop-color="#3E1E77"/>
</linearGradient>
<linearGradient id="paint2_linear_605_174" x1="7.29425" y1="30.4547" x2="7.29425" y2="40.8618" gradientUnits="userSpaceOnUse">
<stop offset="0.00312487" stop-color="#34156B"/>
<stop offset="0.273958" stop-color="#B88CF9"/>
<stop offset="0.409375" stop-color="#9762E4"/>
<stop offset="0.794792" stop-color="#240757"/>
<stop offset="1"/>
</linearGradient>
<linearGradient id="paint3_linear_605_174" x1="21" y1="0.905975" x2="21" y2="41.094" gradientUnits="userSpaceOnUse">
<stop stop-color="#7E49D6"/>
<stop offset="1" stop-color="#713AD6"/>
</linearGradient>
</defs>
</svg>
