<svg width="40" height="40" viewBox="0 0 40 40" fill="none" xmlns="http://www.w3.org/2000/svg">
<g clip-path="url(#clip0_50_28)">
<path d="M30 8H10C9.73478 8 9.48043 8.10536 9.29289 8.29289C9.10536 8.48043 9 8.73478 9 9V24C9 24.2652 9.10536 24.5196 9.29289 24.7071C9.48043 24.8946 9.73478 25 10 25C10.2652 25 10.5196 24.8946 10.7071 24.7071C10.8946 24.5196 11 24.2652 11 24V10H29V22.59L24.59 27H19C18.8684 26.9992 18.7379 27.0245 18.6161 27.0742C18.4943 27.124 18.3834 27.1973 18.29 27.29L15.5 30.09V28C15.5 27.7348 15.3946 27.4804 15.2071 27.2929C15.0196 27.1054 14.7652 27 14.5 27H10C9.73478 27 9.48043 27.1054 9.29289 27.2929C9.10536 27.4804 9 27.7348 9 28C9 28.2652 9.10536 28.5196 9.29289 28.7071C9.48043 28.8946 9.73478 29 10 29H13.5V32.5C13.501 32.6974 13.5604 32.8901 13.6707 33.0539C13.7811 33.2176 13.9374 33.345 14.12 33.42C14.2387 33.476 14.3688 33.5034 14.5 33.5C14.6316 33.5008 14.7621 33.4755 14.8839 33.4258C15.0057 33.376 15.1166 33.3027 15.21 33.21L19.41 29H25C25.1316 29.0008 25.2621 28.9755 25.3839 28.9258C25.5057 28.876 25.6166 28.8027 25.71 28.71L30.71 23.71C30.8027 23.6166 30.876 23.5057 30.9258 23.3839C30.9755 23.2621 31.0008 23.1316 31 23V9C31 8.73478 30.8946 8.48043 30.7071 8.29289C30.5196 8.10536 30.2652 8 30 8Z" fill="#392E5C"/>
<path d="M19 21V16C19 15.7348 18.8946 15.4804 18.7071 15.2929C18.5196 15.1054 18.2652 15 18 15C17.7348 15 17.4804 15.1054 17.2929 15.2929C17.1054 15.4804 17 15.7348 17 16V21C17 21.2652 17.1054 21.5196 17.2929 21.7071C17.4804 21.8946 17.7348 22 18 22C18.2652 22 18.5196 21.8946 18.7071 21.7071C18.8946 21.5196 19 21.2652 19 21Z" fill="#392E5C"/>
<path d="M25 21V16C25 15.7348 24.8946 15.4804 24.7071 15.2929C24.5196 15.1054 24.2652 15 24 15C23.7348 15 23.4804 15.1054 23.2929 15.2929C23.1054 15.4804 23 15.7348 23 16V21C23 21.2652 23.1054 21.5196 23.2929 21.7071C23.4804 21.8946 23.7348 22 24 22C24.2652 22 24.5196 21.8946 24.7071 21.7071C24.8946 21.5196 25 21.2652 25 21Z" fill="#392E5C"/>
<path fill-rule="evenodd" clip-rule="evenodd" d="M26.75 2C26.75 1.30964 27.3096 0.75 28 0.75H36.3333C37.1069 0.75 37.8487 1.05729 38.3957 1.60427C38.9427 2.15125 39.25 2.89312 39.25 3.66667V12C39.25 12.6904 38.6904 13.25 38 13.25C37.3096 13.25 36.75 12.6904 36.75 12V3.66667C36.75 3.55616 36.7061 3.45018 36.628 3.37204C36.5498 3.2939 36.4438 3.25 36.3333 3.25H28C27.3096 3.25 26.75 2.69036 26.75 2Z" fill="#392E5C"/>
<path fill-rule="evenodd" clip-rule="evenodd" d="M38 26.75C38.6904 26.75 39.25 27.3096 39.25 28V36.3333C39.25 37.1069 38.9427 37.8487 38.3957 38.3957C37.8487 38.9427 37.1069 39.25 36.3333 39.25H28C27.3096 39.25 26.75 38.6904 26.75 38C26.75 37.3096 27.3096 36.75 28 36.75H36.3333C36.4438 36.75 36.5498 36.7061 36.628 36.628C36.7061 36.5498 36.75 36.4438 36.75 36.3333V28C36.75 27.3096 37.3096 26.75 38 26.75Z" fill="#392E5C"/>
<path fill-rule="evenodd" clip-rule="evenodd" d="M1.60427 1.60427C2.15125 1.05729 2.89312 0.75 3.66667 0.75H12C12.6904 0.75 13.25 1.30964 13.25 2C13.25 2.69036 12.6904 3.25 12 3.25H3.66667C3.55616 3.25 3.45018 3.2939 3.37204 3.37204C3.2939 3.45018 3.25 3.55616 3.25 3.66667V12C3.25 12.6904 2.69036 13.25 2 13.25C1.30964 13.25 0.75 12.6904 0.75 12V3.66667C0.75 2.89312 1.05729 2.15125 1.60427 1.60427Z" fill="#392E5C"/>
<path fill-rule="evenodd" clip-rule="evenodd" d="M2 26.75C2.69036 26.75 3.25 27.3096 3.25 28V36.3333C3.25 36.4438 3.2939 36.5498 3.37204 36.628C3.45018 36.7061 3.55616 36.75 3.66667 36.75H12C12.6904 36.75 13.25 37.3096 13.25 38C13.25 38.6904 12.6904 39.25 12 39.25H3.66667C2.89312 39.25 2.15125 38.9427 1.60427 38.3957C1.05729 37.8487 0.75 37.1069 0.75 36.3333V28C0.75 27.3096 1.30964 26.75 2 26.75Z" fill="#392E5C"/>
</g>
<defs>
<clipPath id="clip0_50_28">
<rect width="40" height="40" fill="white"/>
</clipPath>
</defs>
</svg>
