<svg width="40" height="40" viewBox="0 0 40 40" fill="none" xmlns="http://www.w3.org/2000/svg">
<path fill-rule="evenodd" clip-rule="evenodd" d="M8.83438 27.7301C8.83438 29.4919 7.40609 30.9202 5.6442 30.9202C3.88231 30.9202 2.45402 29.4919 2.45402 27.7301C2.45402 25.9682 3.88231 24.5399 5.6442 24.5399C7.40609 24.5399 8.83438 25.9682 8.83438 27.7301ZM6.74284 31.2443C8.23917 30.777 9.32518 29.3803 9.32518 27.7301C9.32518 25.6971 7.67715 24.0491 5.6442 24.0491C3.61125 24.0491 1.96322 25.6971 1.96322 27.7301C1.96322 29.3803 3.04923 30.777 4.54556 31.2443C2.73661 31.6193 1.11762 32.9334 0.640027 35.1867C0.622407 35.2698 0.613525 35.3545 0.613525 35.4395V38.2822C0.613525 38.4177 0.723394 38.5276 0.858924 38.5276C0.994454 38.5276 1.10432 38.4177 1.10432 38.2822V35.4395C1.10432 35.3887 1.10963 35.3381 1.12016 35.2884C2.1561 30.4009 9.1323 30.4009 10.1682 35.2884C10.1788 35.3381 10.1841 35.3887 10.1841 35.4395V38.2822C10.1841 38.4177 10.2939 38.5276 10.4295 38.5276C10.565 38.5276 10.6749 38.4177 10.6749 38.2822V35.4395C10.6749 35.3545 10.666 35.2698 10.6484 35.1867C10.1708 32.9334 8.55179 31.6193 6.74284 31.2443Z" fill="#392E5C"/>
<path fill-rule="evenodd" clip-rule="evenodd" d="M5.56264 30.9192C5.26004 30.9116 4.9679 30.8619 4.69188 30.7757C4.60238 30.7477 4.51457 30.7159 4.42865 30.6805C4.40836 30.6721 4.38817 30.6635 4.36809 30.6548C3.24138 30.1625 2.45399 29.0382 2.45399 27.73C2.45399 25.9681 3.88228 24.5398 5.64417 24.5398C7.40606 24.5398 8.83436 25.9681 8.83436 27.73C8.83436 29.0382 8.04696 30.1625 6.92025 30.6548C6.90017 30.6635 6.87998 30.6721 6.85969 30.6805C6.77377 30.7159 6.68597 30.7477 6.59647 30.7757C6.32044 30.8619 6.0283 30.9116 5.7257 30.9192C5.69861 30.9199 5.67143 30.9202 5.64417 30.9202C5.61691 30.9202 5.58974 30.9199 5.56264 30.9192ZM4.32603 31.168C4.10077 31.0815 3.88616 30.9736 3.68472 30.8467C2.65041 30.1951 1.96319 29.0428 1.96319 27.73C1.96319 25.6971 3.61122 24.049 5.64417 24.049C7.67712 24.049 9.32515 25.6971 9.32515 27.73C9.32515 29.0428 8.63794 30.1951 7.60362 30.8467C7.40218 30.9736 7.18758 31.0815 6.96232 31.168C6.89021 31.1956 6.81702 31.2211 6.74281 31.2443C6.81874 31.26 6.89433 31.2774 6.96951 31.2964C7.20412 31.3559 7.43479 31.4314 7.65938 31.5231C9.07761 32.1019 10.2534 33.3231 10.6483 35.1866C10.666 35.2698 10.6748 35.3545 10.6748 35.4395V38.2822C10.6748 38.4177 10.565 38.5276 10.4294 38.5276C10.2939 38.5276 10.184 38.4177 10.184 38.2822V35.4395C10.184 35.3887 10.1787 35.3381 10.1682 35.2884C9.76743 33.3975 8.47753 32.2382 6.98648 31.8104C6.96212 31.8034 6.93771 31.7966 6.91325 31.79C6.82381 31.7659 6.7337 31.7444 6.64306 31.7255C6.3453 31.6634 6.04181 31.6294 5.73779 31.6236C5.67539 31.6225 5.61296 31.6225 5.55055 31.6236C5.24653 31.6294 4.94304 31.6634 4.64528 31.7255C4.55464 31.7444 4.46453 31.7659 4.3751 31.79C4.35063 31.7966 4.32622 31.8034 4.30186 31.8104C2.81081 32.2382 1.52091 33.3975 1.12013 35.2884C1.1096 35.3381 1.10429 35.3887 1.10429 35.4395V38.2822C1.10429 38.4177 0.994426 38.5276 0.858896 38.5276C0.723366 38.5276 0.613497 38.4177 0.613497 38.2822V35.4395C0.613497 35.3545 0.622379 35.2698 0.639998 35.1866C1.03499 33.3231 2.21073 32.1019 3.62896 31.5231C3.85355 31.4314 4.08422 31.3559 4.31883 31.2964C4.39402 31.2774 4.46961 31.26 4.54553 31.2443C4.47133 31.2211 4.39813 31.1956 4.32603 31.168ZM8.27154 31.1271C9.28553 30.3418 9.93865 29.1126 9.93865 27.73C9.93865 25.3583 8.01595 23.4355 5.64417 23.4355C3.2724 23.4355 1.34969 25.3583 1.34969 27.73C1.34969 29.1126 2.00281 30.3418 3.0168 31.1271C1.59703 31.8321 0.444997 33.1479 0.0398345 35.0594C0.0133511 35.1844 0 35.3117 0 35.4395V38.2822C0 38.7565 0.38454 39.1411 0.858896 39.1411C1.33325 39.1411 1.71779 38.7565 1.71779 38.2822V35.4395C1.71779 35.4315 1.71863 35.4235 1.72029 35.4156C2.61881 31.1765 8.66954 31.1765 9.56805 35.4156C9.56971 35.4235 9.57055 35.4315 9.57055 35.4395V38.2822C9.57055 38.7565 9.95509 39.1411 10.4294 39.1411C10.9038 39.1411 11.2883 38.7565 11.2883 38.2822V35.4395C11.2883 35.3117 11.275 35.1844 11.2485 35.0594C10.8433 33.1479 9.69131 31.8321 8.27154 31.1271ZM5.64417 30.3067C7.06724 30.3067 8.22086 29.1531 8.22086 27.73C8.22086 26.307 7.06724 25.1533 5.64417 25.1533C4.22111 25.1533 3.06748 26.307 3.06748 27.73C3.06748 29.1531 4.22111 30.3067 5.64417 30.3067Z" fill="#392E5C"/>
<path fill-rule="evenodd" clip-rule="evenodd" d="M18.4049 27.7301C18.4049 29.4919 16.9766 30.9202 15.2147 30.9202C13.4528 30.9202 12.0245 29.4919 12.0245 27.7301C12.0245 25.9682 13.4528 24.5399 15.2147 24.5399C16.9766 24.5399 18.4049 25.9682 18.4049 27.7301ZM16.3133 31.2443C17.8097 30.777 18.8957 29.3803 18.8957 27.7301C18.8957 25.6971 17.2476 24.0491 15.2147 24.0491C13.1817 24.0491 11.5337 25.6971 11.5337 27.7301C11.5337 29.3803 12.6197 30.777 14.1161 31.2443C12.3071 31.6193 10.6881 32.9334 10.2105 35.1867C10.1929 35.2698 10.184 35.3545 10.184 35.4395V38.2822C10.184 38.4177 10.2939 38.5276 10.4294 38.5276C10.5649 38.5276 10.6748 38.4177 10.6748 38.2822V35.4395C10.6748 35.3887 10.6801 35.3381 10.6907 35.2884C11.7266 30.4009 18.7028 30.4009 19.7387 35.2884C19.7493 35.3381 19.7546 35.3887 19.7546 35.4395V38.2822C19.7546 38.4177 19.8644 38.5276 20 38.5276C20.1355 38.5276 20.2454 38.4177 20.2454 38.2822V35.4395C20.2454 35.3545 20.2365 35.2698 20.2189 35.1867C19.7413 32.9334 18.1223 31.6193 16.3133 31.2443Z" fill="#392E5C"/>
<path fill-rule="evenodd" clip-rule="evenodd" d="M15.1332 30.9192C14.8306 30.9116 14.5385 30.8619 14.2624 30.7757C14.1729 30.7477 14.0851 30.7159 13.9992 30.6805C13.9789 30.6721 13.9587 30.6635 13.9387 30.6548C12.8119 30.1625 12.0245 29.0382 12.0245 27.73C12.0245 25.9681 13.4528 24.5398 15.2147 24.5398C16.9766 24.5398 18.4049 25.9681 18.4049 27.73C18.4049 29.0382 17.6175 30.1625 16.4908 30.6548C16.4707 30.6635 16.4505 30.6721 16.4302 30.6805C16.3443 30.7159 16.2565 30.7477 16.167 30.7757C15.891 30.8619 15.5989 30.9116 15.2963 30.9192C15.2692 30.9199 15.242 30.9202 15.2147 30.9202C15.1875 30.9202 15.1603 30.9199 15.1332 30.9192ZM13.8966 31.168C13.6713 31.0815 13.4567 30.9736 13.2553 30.8467C12.221 30.1951 11.5337 29.0428 11.5337 27.73C11.5337 25.6971 13.1818 24.049 15.2147 24.049C17.2477 24.049 18.8957 25.6971 18.8957 27.73C18.8957 29.0428 18.2085 30.1951 17.1742 30.8467C16.9727 30.9736 16.7581 31.0815 16.5329 31.168C16.4608 31.1956 16.3876 31.2211 16.3134 31.2443C16.3893 31.26 16.4649 31.2774 16.5401 31.2964C16.7747 31.3559 17.0053 31.4314 17.2299 31.5231C18.6482 32.1019 19.8239 33.3231 20.2189 35.1866C20.2365 35.2698 20.2454 35.3545 20.2454 35.4395V38.2822C20.2454 38.4177 20.1355 38.5276 20 38.5276C19.8645 38.5276 19.7546 38.4177 19.7546 38.2822V35.4395C19.7546 35.3887 19.7493 35.3381 19.7388 35.2884C19.338 33.3975 18.0481 32.2382 16.557 31.8104C16.5327 31.8034 16.5083 31.7966 16.4838 31.79C16.3944 31.7659 16.3043 31.7444 16.2136 31.7255C15.9159 31.6634 15.6124 31.6294 15.3083 31.6236C15.2459 31.6225 15.1835 31.6225 15.1211 31.6236C14.8171 31.6294 14.5136 31.6634 14.2158 31.7255C14.1252 31.7444 14.0351 31.7659 13.9457 31.79C13.9212 31.7966 13.8968 31.8034 13.8724 31.8104C12.3814 32.2382 11.0915 33.3975 10.6907 35.2884C10.6802 35.3381 10.6749 35.3887 10.6749 35.4395V38.2822C10.6749 38.4177 10.565 38.5276 10.4295 38.5276C10.2939 38.5276 10.1841 38.4177 10.1841 38.2822V35.4395C10.1841 35.3545 10.1929 35.2698 10.2106 35.1866C10.6055 33.3231 11.7813 32.1019 13.1995 31.5231C13.4241 31.4314 13.6548 31.3559 13.8894 31.2964C13.9646 31.2774 14.0402 31.26 14.1161 31.2443C14.0419 31.2211 13.9687 31.1956 13.8966 31.168ZM17.8421 31.1271C18.8561 30.3418 19.5092 29.1126 19.5092 27.73C19.5092 25.3583 17.5865 23.4355 15.2147 23.4355C12.843 23.4355 10.9202 25.3583 10.9202 27.73C10.9202 29.1126 11.5734 30.3418 12.5874 31.1271C11.1676 31.8321 10.0156 33.1479 9.61039 35.0594C9.58391 35.1844 9.57056 35.3117 9.57056 35.4395V38.2822C9.57056 38.7565 9.9551 39.1411 10.4295 39.1411C10.9038 39.1411 11.2883 38.7565 11.2883 38.2822V35.4395C11.2883 35.4315 11.2892 35.4235 11.2908 35.4156C12.1894 31.1765 18.2401 31.1765 19.1386 35.4156C19.1403 35.4235 19.1411 35.4315 19.1411 35.4395V38.2822C19.1411 38.7565 19.5257 39.1411 20 39.1411C20.4744 39.1411 20.8589 38.7565 20.8589 38.2822V35.4395C20.8589 35.3117 20.8455 35.1844 20.8191 35.0594C20.4139 33.1479 19.2619 31.8321 17.8421 31.1271ZM15.2147 30.3067C16.6378 30.3067 17.7914 29.1531 17.7914 27.73C17.7914 26.307 16.6378 25.1533 15.2147 25.1533C13.7917 25.1533 12.638 26.307 12.638 27.73C12.638 29.1531 13.7917 30.3067 15.2147 30.3067Z" fill="#392E5C"/>
<path fill-rule="evenodd" clip-rule="evenodd" d="M27.9754 27.7301C27.9754 29.4919 26.5471 30.9202 24.7853 30.9202C23.0234 30.9202 21.5951 29.4919 21.5951 27.7301C21.5951 25.9682 23.0234 24.5399 24.7853 24.5399C26.5471 24.5399 27.9754 25.9682 27.9754 27.7301ZM25.8839 31.2443C27.3802 30.777 28.4662 29.3803 28.4662 27.7301C28.4662 25.6971 26.8182 24.0491 24.7853 24.0491C22.7523 24.0491 21.1043 25.6971 21.1043 27.7301C21.1043 29.3803 22.1903 30.777 23.6866 31.2443C21.8777 31.6193 20.2587 32.9334 19.7811 35.1867C19.7635 35.2698 19.7546 35.3545 19.7546 35.4395V38.2822C19.7546 38.4177 19.8644 38.5276 20 38.5276C20.1355 38.5276 20.2454 38.4177 20.2454 38.2822V35.4395C20.2454 35.3887 20.2507 35.3381 20.2612 35.2884C21.2972 30.4009 28.2734 30.4009 29.3093 35.2884C29.3198 35.3381 29.3251 35.3887 29.3251 35.4395V38.2822C29.3251 38.4177 29.435 38.5276 29.5705 38.5276C29.7061 38.5276 29.8159 38.4177 29.8159 38.2822V35.4395C29.8159 35.3545 29.807 35.2698 29.7894 35.1867C29.3118 32.9334 27.6928 31.6193 25.8839 31.2443Z" fill="#392E5C"/>
<path fill-rule="evenodd" clip-rule="evenodd" d="M24.7038 30.9192C24.4012 30.9116 24.109 30.8619 23.833 30.7757C23.7435 30.7477 23.6557 30.7159 23.5698 30.6805C23.5495 30.6721 23.5293 30.6635 23.5092 30.6548C22.3825 30.1625 21.5951 29.0382 21.5951 27.73C21.5951 25.9681 23.0234 24.5398 24.7853 24.5398C26.5472 24.5398 27.9755 25.9681 27.9755 27.73C27.9755 29.0382 27.1881 30.1625 26.0614 30.6548C26.0413 30.6635 26.0211 30.6721 26.0008 30.6805C25.9149 30.7159 25.8271 30.7477 25.7376 30.7757C25.4616 30.8619 25.1694 30.9116 24.8668 30.9192C24.8397 30.9199 24.8125 30.9202 24.7853 30.9202C24.758 30.9202 24.7309 30.9199 24.7038 30.9192ZM23.4671 31.168C23.2419 31.0815 23.0273 30.9736 22.8258 30.8467C21.7915 30.1951 21.1043 29.0428 21.1043 27.73C21.1043 25.6971 22.7523 24.049 24.7853 24.049C26.8182 24.049 28.4663 25.6971 28.4663 27.73C28.4663 29.0428 27.779 30.1951 26.7447 30.8467C26.5433 30.9736 26.3287 31.0815 26.1034 31.168C26.0313 31.1956 25.9581 31.2211 25.8839 31.2443C25.9599 31.26 26.0354 31.2774 26.1106 31.2964C26.3452 31.3559 26.5759 31.4314 26.8005 31.5231C28.2187 32.1019 29.3945 33.3231 29.7895 35.1866C29.8071 35.2698 29.816 35.3545 29.816 35.4395V38.2822C29.816 38.4177 29.7061 38.5276 29.5706 38.5276C29.435 38.5276 29.3252 38.4177 29.3252 38.2822V35.4395C29.3252 35.3887 29.3199 35.3381 29.3093 35.2884C28.9085 33.3975 27.6186 32.2382 26.1276 31.8104C26.1032 31.8034 26.0788 31.7966 26.0544 31.79C25.9649 31.7659 25.8748 31.7444 25.7842 31.7255C25.4864 31.6634 25.1829 31.6294 24.8789 31.6236C24.8165 31.6225 24.7541 31.6225 24.6917 31.6236C24.3876 31.6294 24.0842 31.6634 23.7864 31.7255C23.6958 31.7444 23.6056 31.7659 23.5162 31.79C23.4917 31.7966 23.4673 31.8034 23.443 31.8104C21.9519 32.2382 20.662 33.3975 20.2612 35.2884C20.2507 35.3381 20.2454 35.3887 20.2454 35.4395V38.2822C20.2454 38.4177 20.1355 38.5276 20 38.5276C19.8645 38.5276 19.7546 38.4177 19.7546 38.2822V35.4395C19.7546 35.3545 19.7635 35.2698 19.7811 35.1866C20.1761 33.3231 21.3518 32.1019 22.7701 31.5231C22.9947 31.4314 23.2253 31.3559 23.4599 31.2964C23.5351 31.2774 23.6107 31.26 23.6866 31.2443C23.6124 31.2211 23.5392 31.1956 23.4671 31.168ZM27.4127 31.1271C28.4266 30.3418 29.0798 29.1126 29.0798 27.73C29.0798 25.3583 27.1571 23.4355 24.7853 23.4355C22.4135 23.4355 20.4908 25.3583 20.4908 27.73C20.4908 29.1126 21.1439 30.3418 22.1579 31.1271C20.7381 31.8321 19.5861 33.1479 19.1809 35.0594C19.1545 35.1844 19.1411 35.3117 19.1411 35.4395V38.2822C19.1411 38.7565 19.5257 39.1411 20 39.1411C20.4744 39.1411 20.8589 38.7565 20.8589 38.2822V35.4395C20.8589 35.4315 20.8597 35.4235 20.8614 35.4156C21.7599 31.1765 27.8106 31.1765 28.7092 35.4156C28.7108 35.4235 28.7117 35.4315 28.7117 35.4395V38.2822C28.7117 38.7565 29.0962 39.1411 29.5706 39.1411C30.0449 39.1411 30.4295 38.7565 30.4295 38.2822V35.4395C30.4295 35.3117 30.4161 35.1844 30.3896 35.0594C29.9845 33.1479 28.8324 31.8321 27.4127 31.1271ZM24.7853 30.3067C26.2083 30.3067 27.362 29.1531 27.362 27.73C27.362 26.307 26.2083 25.1533 24.7853 25.1533C23.3622 25.1533 22.2086 26.307 22.2086 27.73C22.2086 29.1531 23.3622 30.3067 24.7853 30.3067Z" fill="#392E5C"/>
<path fill-rule="evenodd" clip-rule="evenodd" d="M37.546 27.7301C37.546 29.4919 36.1177 30.9202 34.3558 30.9202C32.5939 30.9202 31.1656 29.4919 31.1656 27.7301C31.1656 25.9682 32.5939 24.5399 34.3558 24.5399C36.1177 24.5399 37.546 25.9682 37.546 27.7301ZM35.4545 31.2443C36.9508 30.777 38.0368 29.3803 38.0368 27.7301C38.0368 25.6971 36.3888 24.0491 34.3558 24.0491C32.3229 24.0491 30.6748 25.6971 30.6748 27.7301C30.6748 29.3803 31.7608 30.777 33.2572 31.2443C31.4482 31.6193 29.8292 32.9334 29.3516 35.1867C29.334 35.2698 29.3251 35.3545 29.3251 35.4395V38.2822C29.3251 38.4177 29.435 38.5276 29.5705 38.5276C29.7061 38.5276 29.8159 38.4177 29.8159 38.2822V35.4395C29.8159 35.3887 29.8212 35.3381 29.8318 35.2884C30.8677 30.4009 37.8439 30.4009 38.8799 35.2884C38.8904 35.3381 38.8957 35.3887 38.8957 35.4395V38.2822C38.8957 38.4177 39.0056 38.5276 39.1411 38.5276C39.2766 38.5276 39.3865 38.4177 39.3865 38.2822V35.4395C39.3865 35.3545 39.3776 35.2698 39.36 35.1867C38.8824 32.9334 37.2634 31.6193 35.4545 31.2443Z" fill="#392E5C"/>
<path fill-rule="evenodd" clip-rule="evenodd" d="M34.2743 30.9192C33.9717 30.9116 33.6796 30.8619 33.4035 30.7757C33.314 30.7477 33.2262 30.7159 33.1403 30.6805C33.12 30.6721 33.0998 30.6635 33.0798 30.6548C31.9531 30.1625 31.1657 29.0382 31.1657 27.73C31.1657 25.9681 32.594 24.5398 34.3558 24.5398C36.1177 24.5398 37.546 25.9681 37.546 27.73C37.546 29.0382 36.7586 30.1625 35.6319 30.6548C35.6118 30.6635 35.5917 30.6721 35.5714 30.6805C35.4854 30.7159 35.3976 30.7477 35.3081 30.7757C35.0321 30.8619 34.74 30.9116 34.4374 30.9192C34.4103 30.9199 34.3831 30.9202 34.3558 30.9202C34.3286 30.9202 34.3014 30.9199 34.2743 30.9192ZM33.0377 31.168C32.8124 31.0815 32.5978 30.9736 32.3964 30.8467C31.3621 30.1951 30.6749 29.0428 30.6749 27.73C30.6749 25.6971 32.3229 24.049 34.3558 24.049C36.3888 24.049 38.0368 25.6971 38.0368 27.73C38.0368 29.0428 37.3496 30.1951 36.3153 30.8467C36.1139 30.9736 35.8992 31.0815 35.674 31.168C35.6019 31.1956 35.5287 31.2211 35.4545 31.2443C35.5304 31.26 35.606 31.2774 35.6812 31.2964C35.9158 31.3559 36.1465 31.4314 36.3711 31.5231C37.7893 32.1019 38.965 33.3231 39.36 35.1866C39.3776 35.2698 39.3865 35.3545 39.3865 35.4395V38.2822C39.3865 38.4177 39.2766 38.5276 39.1411 38.5276C39.0056 38.5276 38.8957 38.4177 38.8957 38.2822V35.4395C38.8957 35.3887 38.8904 35.3381 38.8799 35.2884C38.4791 33.3975 37.1892 32.2382 35.6982 31.8104C35.6738 31.8034 35.6494 31.7966 35.6249 31.79C35.5355 31.7659 35.4454 31.7444 35.3547 31.7255C35.057 31.6634 34.7535 31.6294 34.4495 31.6236C34.3871 31.6225 34.3246 31.6225 34.2622 31.6236C33.9582 31.6294 33.6547 31.6634 33.357 31.7255C33.2663 31.7444 33.1762 31.7659 33.0868 31.79C33.0623 31.7966 33.0379 31.8034 33.0135 31.8104C31.5225 32.2382 30.2326 33.3975 29.8318 35.2884C29.8213 35.3381 29.816 35.3887 29.816 35.4395V38.2822C29.816 38.4177 29.7061 38.5276 29.5706 38.5276C29.435 38.5276 29.3252 38.4177 29.3252 38.2822V35.4395C29.3252 35.3545 29.334 35.2698 29.3517 35.1866C29.7467 33.3231 30.9224 32.1019 32.3406 31.5231C32.5652 31.4314 32.7959 31.3559 33.0305 31.2964C33.1057 31.2774 33.1813 31.26 33.2572 31.2443C33.183 31.2211 33.1098 31.1956 33.0377 31.168ZM36.9832 31.1271C37.9972 30.3418 38.6503 29.1126 38.6503 27.73C38.6503 25.3583 36.7276 23.4355 34.3558 23.4355C31.9841 23.4355 30.0614 25.3583 30.0614 27.73C30.0614 29.1126 30.7145 30.3418 31.7285 31.1271C30.3087 31.8321 29.1567 33.1479 28.7515 35.0594C28.725 35.1844 28.7117 35.3117 28.7117 35.4395V38.2822C28.7117 38.7565 29.0962 39.1411 29.5706 39.1411C30.0449 39.1411 30.4295 38.7565 30.4295 38.2822V35.4395C30.4295 35.4315 30.4303 35.4235 30.432 35.4156C31.3305 31.1765 37.3812 31.1765 38.2797 35.4156C38.2814 35.4235 38.2822 35.4315 38.2822 35.4395V38.2822C38.2822 38.7565 38.6668 39.1411 39.1411 39.1411C39.6155 39.1411 40 38.7565 40 38.2822V35.4395C40 35.3117 39.9867 35.1844 39.9602 35.0594C39.555 33.1479 38.403 31.8321 36.9832 31.1271ZM34.3558 30.3067C35.7789 30.3067 36.9325 29.1531 36.9325 27.73C36.9325 26.307 35.7789 25.1533 34.3558 25.1533C32.9328 25.1533 31.7792 26.307 31.7792 27.73C31.7792 29.1531 32.9328 30.3067 34.3558 30.3067Z" fill="#392E5C"/>
<path fill-rule="evenodd" clip-rule="evenodd" d="M32.638 16.4417C32.638 18.2036 31.2097 19.6319 29.4479 19.6319C27.686 19.6319 26.2577 18.2036 26.2577 16.4417C26.2577 14.6798 27.686 13.2515 29.4479 13.2515C31.2097 13.2515 32.638 14.6798 32.638 16.4417ZM30.5465 19.956C32.0428 19.4887 33.1288 18.092 33.1288 16.4417C33.1288 14.4088 31.4808 12.7607 29.4479 12.7607C27.4149 12.7607 25.7669 14.4088 25.7669 16.4417C25.7669 18.092 26.8529 19.4887 28.3492 19.956C26.5403 20.331 24.9213 21.6451 24.4437 23.8983C24.4261 23.9815 24.4172 24.0662 24.4172 24.1512V24.2945C24.4172 24.43 24.527 24.5399 24.6626 24.5399C24.7981 24.5399 24.908 24.43 24.908 24.2945V24.1512C24.908 24.1004 24.9133 24.0498 24.9238 24.0001C25.9598 19.1126 32.9359 19.1126 33.9719 24.0001C33.9824 24.0498 33.9877 24.1004 33.9877 24.1512V24.2945C33.9877 24.43 34.0976 24.5399 34.2331 24.5399C34.3687 24.5399 34.4785 24.43 34.4785 24.2945V24.1512C34.4785 24.0662 34.4696 23.9815 34.452 23.8983C33.9744 21.6451 32.3554 20.331 30.5465 19.956Z" fill="#392E5C"/>
<path fill-rule="evenodd" clip-rule="evenodd" d="M29.3664 19.6309C29.0638 19.6233 28.7716 19.5735 28.4956 19.4873C28.4061 19.4594 28.3183 19.4276 28.2324 19.3921C28.2121 19.3838 28.1919 19.3752 28.1718 19.3664C27.0451 18.8741 26.2577 17.7499 26.2577 16.4417C26.2577 14.6798 27.686 13.2515 29.4479 13.2515C31.2098 13.2515 32.6381 14.6798 32.6381 16.4417C32.6381 17.7499 31.8507 18.8741 30.724 19.3664C30.7039 19.3752 30.6837 19.3838 30.6634 19.3921C30.5775 19.4276 30.4897 19.4594 30.4002 19.4873C30.1242 19.5735 29.832 19.6233 29.5294 19.6309C29.5023 19.6315 29.4751 19.6319 29.4479 19.6319C29.4206 19.6319 29.3934 19.6315 29.3664 19.6309ZM28.1297 19.8796C27.9045 19.7932 27.6899 19.6853 27.4884 19.5584C26.4541 18.9067 25.7669 17.7545 25.7669 16.4417C25.7669 14.4087 27.4149 12.7607 29.4479 12.7607C31.4808 12.7607 33.1289 14.4087 33.1289 16.4417C33.1289 17.7545 32.4416 18.9067 31.4073 19.5584C31.2059 19.6853 30.9913 19.7932 30.766 19.8796C30.6939 19.9073 30.6207 19.9328 30.5465 19.9559C30.6224 19.9717 30.698 19.9891 30.7732 20.0081C31.0078 20.0676 31.2385 20.1431 31.4631 20.2348C32.8813 20.8136 34.0571 22.0347 34.4521 23.8983C34.4601 23.9363 34.4663 23.9747 34.4707 24.0133C34.4759 24.059 34.4786 24.1051 34.4786 24.1511V24.2945C34.4786 24.43 34.3687 24.5399 34.2332 24.5399C34.0976 24.5399 33.9878 24.43 33.9878 24.2945V24.1511C33.9878 24.1104 33.9843 24.0697 33.9775 24.0296C33.9759 24.0197 33.974 24.0099 33.9719 24.0001C33.5711 22.1092 32.2812 20.9498 30.7902 20.5221C30.7658 20.5151 30.7414 20.5083 30.717 20.5017C30.6275 20.4775 30.5374 20.456 30.4468 20.4371C30.149 20.375 29.8455 20.3411 29.5415 20.3353C29.4791 20.3341 29.4167 20.3341 29.3543 20.3353C29.0502 20.3411 28.7468 20.375 28.449 20.4371C28.3584 20.456 28.2682 20.4775 28.1788 20.5017C28.1543 20.5083 28.1299 20.5151 28.1056 20.5221C26.6145 20.9498 25.3246 22.1092 24.9238 24.0001C24.9218 24.0099 24.9199 24.0197 24.9182 24.0296C24.9114 24.0697 24.908 24.1104 24.908 24.1511V24.2945C24.908 24.43 24.7981 24.5399 24.6626 24.5399C24.5271 24.5399 24.4172 24.43 24.4172 24.2945V24.1511C24.4172 24.1051 24.4198 24.059 24.425 24.0133C24.4294 23.9747 24.4356 23.9363 24.4437 23.8983C24.8387 22.0347 26.0144 20.8136 27.4327 20.2348C27.6573 20.1431 27.8879 20.0676 28.1225 20.0081C28.1977 19.9891 28.2733 19.9717 28.3492 19.9559C28.275 19.9328 28.2018 19.9073 28.1297 19.8796ZM32.0753 19.8388C33.0892 19.0535 33.7424 17.8243 33.7424 16.4417C33.7424 14.0699 31.8197 12.1472 29.4479 12.1472C27.0761 12.1472 25.1534 14.0699 25.1534 16.4417C25.1534 17.8243 25.8065 19.0535 26.8205 19.8388C25.4007 20.5438 24.2487 21.8596 23.8435 23.7711L24.3237 23.8729L23.8435 23.7711C23.8171 23.896 23.8037 24.0234 23.8037 24.1511V24.2945C23.8037 24.7688 24.1883 25.1534 24.6626 25.1534C25.137 25.1534 25.5215 24.7688 25.5215 24.2945V24.1511C25.5215 24.1431 25.5223 24.1351 25.524 24.1273C26.4225 19.8881 32.4732 19.8881 33.3718 24.1273C33.3734 24.1351 33.3743 24.1431 33.3743 24.1511V24.2945C33.3743 24.7688 33.7588 25.1534 34.2332 25.1534C34.7075 25.1534 35.0921 24.7688 35.0921 24.2945V24.1511C35.0921 24.0234 35.0787 23.896 35.0522 23.7711C34.6471 21.8596 33.495 20.5438 32.0753 19.8388ZM29.4479 19.0184C30.8709 19.0184 32.0246 17.8648 32.0246 16.4417C32.0246 15.0186 30.8709 13.865 29.4479 13.865C28.0248 13.865 26.8712 15.0186 26.8712 16.4417C26.8712 17.8648 28.0248 19.0184 29.4479 19.0184Z" fill="#392E5C"/>
<path fill-rule="evenodd" clip-rule="evenodd" d="M23.0675 16.4417C23.0675 18.2036 21.6392 19.6319 19.8773 19.6319C18.1154 19.6319 16.6871 18.2036 16.6871 16.4417C16.6871 14.6798 18.1154 13.2515 19.8773 13.2515C21.6392 13.2515 23.0675 14.6798 23.0675 16.4417ZM20.9759 19.956C22.4723 19.4887 23.5583 18.092 23.5583 16.4417C23.5583 14.4088 21.9102 12.7607 19.8773 12.7607C17.8443 12.7607 16.1963 14.4088 16.1963 16.4417C16.1963 18.092 17.2823 19.4887 18.7787 19.956C16.9697 20.331 15.3507 21.6451 14.8731 23.8983C14.8555 23.9815 14.8466 24.0662 14.8466 24.1512V24.2945C14.8466 24.43 14.9565 24.5399 15.092 24.5399C15.2275 24.5399 15.3374 24.43 15.3374 24.2945V24.1512C15.3374 24.1004 15.3427 24.0498 15.3533 24.0001C16.3892 19.1126 23.3654 19.1126 24.4013 24.0001C24.4119 24.0498 24.4172 24.1004 24.4172 24.1512V24.2945C24.4172 24.43 24.527 24.5399 24.6626 24.5399C24.7981 24.5399 24.908 24.43 24.908 24.2945V24.1512C24.908 24.0662 24.8991 23.9815 24.8815 23.8983C24.4039 21.6451 22.7849 20.331 20.9759 19.956Z" fill="#392E5C"/>
<path fill-rule="evenodd" clip-rule="evenodd" d="M19.7958 19.6309C19.4932 19.6233 19.2011 19.5735 18.925 19.4873C18.8355 19.4594 18.7477 19.4276 18.6618 19.3921C18.6415 19.3838 18.6213 19.3752 18.6012 19.3664C17.4745 18.8741 16.6871 17.7499 16.6871 16.4417C16.6871 14.6798 18.1154 13.2515 19.8773 13.2515C21.6392 13.2515 23.0675 14.6798 23.0675 16.4417C23.0675 17.7499 22.2801 18.8741 21.1534 19.3664C21.1333 19.3752 21.1131 19.3838 21.0928 19.3921C21.0069 19.4276 20.9191 19.4594 20.8296 19.4873C20.5536 19.5735 20.2615 19.6233 19.9589 19.6309C19.9318 19.6315 19.9046 19.6319 19.8773 19.6319C19.8501 19.6319 19.8229 19.6315 19.7958 19.6309ZM18.5592 19.8796C18.3339 19.7932 18.1193 19.6853 17.9179 19.5584C16.8836 18.9067 16.1963 17.7545 16.1963 16.4417C16.1963 14.4087 17.8444 12.7607 19.8773 12.7607C21.9103 12.7607 23.5583 14.4087 23.5583 16.4417C23.5583 17.7545 22.8711 18.9067 21.8368 19.5584C21.6353 19.6853 21.4207 19.7932 21.1955 19.8796C21.1234 19.9073 21.0502 19.9328 20.976 19.9559C21.0519 19.9717 21.1275 19.9891 21.2027 20.0081C21.4373 20.0676 21.6679 20.1431 21.8925 20.2348C23.3108 20.8136 24.4865 22.0347 24.8815 23.8983C24.8896 23.9363 24.8958 23.9747 24.9002 24.0133C24.9054 24.059 24.908 24.1051 24.908 24.1511V24.2945C24.908 24.43 24.7981 24.5399 24.6626 24.5399C24.5271 24.5399 24.4172 24.43 24.4172 24.2945V24.1511C24.4172 24.1104 24.4138 24.0697 24.407 24.0296C24.4053 24.0197 24.4034 24.0099 24.4014 24.0001C24.0006 22.1092 22.7107 20.9498 21.2196 20.5221C21.1953 20.5151 21.1709 20.5083 21.1464 20.5017C21.057 20.4775 20.9669 20.456 20.8762 20.4371C20.5785 20.375 20.275 20.3411 19.9709 20.3353C19.9085 20.3341 19.8461 20.3341 19.7837 20.3353C19.4797 20.3411 19.1762 20.375 18.8784 20.4371C18.7878 20.456 18.6977 20.4775 18.6082 20.5017C18.5838 20.5083 18.5594 20.5151 18.535 20.5221C17.044 20.9498 15.7541 22.1092 15.3533 24.0001C15.3512 24.0099 15.3493 24.0197 15.3477 24.0296C15.3409 24.0697 15.3374 24.1104 15.3374 24.1511V24.2945C15.3374 24.43 15.2276 24.5399 15.0921 24.5399C14.9565 24.5399 14.8467 24.43 14.8467 24.2945V24.1511C14.8467 24.1051 14.8493 24.059 14.8545 24.0133C14.8589 23.9747 14.8651 23.9363 14.8732 23.8983C15.2681 22.0347 16.4439 20.8136 17.8621 20.2348C18.0867 20.1431 18.3174 20.0676 18.552 20.0081C18.6272 19.9891 18.7028 19.9717 18.7787 19.9559C18.7045 19.9328 18.6313 19.9073 18.5592 19.8796ZM22.5047 19.8388C23.5187 19.0535 24.1718 17.8243 24.1718 16.4417C24.1718 14.0699 22.2491 12.1472 19.8773 12.1472C17.5056 12.1472 15.5828 14.0699 15.5828 16.4417C15.5828 17.8243 16.236 19.0535 17.25 19.8388C15.8302 20.5438 14.6782 21.8596 14.273 23.7711L14.7531 23.8729L14.273 23.7711C14.2465 23.896 14.2332 24.0234 14.2332 24.1511V24.2945C14.2332 24.7688 14.6177 25.1534 15.0921 25.1534C15.5664 25.1534 15.9509 24.7688 15.9509 24.2945V24.1511C15.9509 24.1431 15.9518 24.1351 15.9534 24.1273C16.852 19.8881 22.9027 19.8881 23.8012 24.1273C23.8029 24.1351 23.8037 24.1431 23.8037 24.1511V24.2945C23.8037 24.7688 24.1882 25.1534 24.6626 25.1534C25.137 25.1534 25.5215 24.7688 25.5215 24.2945V24.1511C25.5215 24.0234 25.5081 23.896 25.4817 23.7711C25.0765 21.8596 23.9245 20.5438 22.5047 19.8388ZM19.8773 19.0184C21.3004 19.0184 22.454 17.8648 22.454 16.4417C22.454 15.0186 21.3004 13.865 19.8773 13.865C18.4543 13.865 17.3006 15.0186 17.3006 16.4417C17.3006 17.8648 18.4543 19.0184 19.8773 19.0184Z" fill="#392E5C"/>
<path fill-rule="evenodd" clip-rule="evenodd" d="M13.4969 16.4417C13.4969 18.2036 12.0686 19.6319 10.3067 19.6319C8.54485 19.6319 7.11655 18.2036 7.11655 16.4417C7.11655 14.6798 8.54485 13.2515 10.3067 13.2515C12.0686 13.2515 13.4969 14.6798 13.4969 16.4417ZM11.4054 19.956C12.9017 19.4887 13.9877 18.092 13.9877 16.4417C13.9877 14.4088 12.3397 12.7607 10.3067 12.7607C8.27379 12.7607 6.62576 14.4088 6.62576 16.4417C6.62576 18.092 7.71176 19.4887 9.20809 19.956C7.39914 20.331 5.78015 21.6451 5.30256 23.8983C5.28494 23.9815 5.27606 24.0662 5.27606 24.1512V24.2945C5.27606 24.43 5.38593 24.5399 5.52146 24.5399C5.65699 24.5399 5.76686 24.43 5.76686 24.2945V24.1512C5.76686 24.1004 5.77217 24.0498 5.78269 24.0001C6.81864 19.1126 13.7948 19.1126 14.8308 24.0001C14.8413 24.0498 14.8466 24.1004 14.8466 24.1512V24.2945C14.8466 24.43 14.9565 24.5399 15.092 24.5399C15.2275 24.5399 15.3374 24.43 15.3374 24.2945V24.1512C15.3374 24.0662 15.3285 23.9815 15.3109 23.8983C14.8333 21.6451 13.2143 20.331 11.4054 19.956Z" fill="#392E5C"/>
<path fill-rule="evenodd" clip-rule="evenodd" d="M10.2252 19.6309C9.92264 19.6233 9.6305 19.5735 9.35447 19.4873C9.26498 19.4594 9.17717 19.4276 9.09125 19.3921C9.07096 19.3838 9.05077 19.3752 9.03069 19.3664C7.90398 18.8741 7.11659 17.7499 7.11659 16.4417C7.11659 14.6798 8.54488 13.2515 10.3068 13.2515C12.0687 13.2515 13.497 14.6798 13.497 16.4417C13.497 17.7499 12.7096 18.8741 11.5828 19.3664C11.5628 19.3752 11.5426 19.3838 11.5223 19.3921C11.4364 19.4276 11.3486 19.4594 11.2591 19.4873C10.983 19.5735 10.6909 19.6233 10.3883 19.6309C10.3612 19.6315 10.334 19.6319 10.3068 19.6319C10.2795 19.6319 10.2523 19.6315 10.2252 19.6309ZM8.98863 19.8796C8.76336 19.7932 8.54876 19.6853 8.34732 19.5584C7.313 18.9067 6.62579 17.7545 6.62579 16.4417C6.62579 14.4087 8.27382 12.7607 10.3068 12.7607C12.3397 12.7607 13.9878 14.4087 13.9878 16.4417C13.9878 17.7545 13.3005 18.9067 12.2662 19.5584C12.0648 19.6853 11.8502 19.7932 11.6249 19.8796C11.5528 19.9073 11.4796 19.9328 11.4054 19.9559C11.4813 19.9717 11.5569 19.9891 11.6321 20.0081C11.8667 20.0676 12.0974 20.1431 12.322 20.2348C13.7402 20.8136 14.9159 22.0347 15.3109 23.8983C15.319 23.9363 15.3252 23.9747 15.3296 24.0133C15.3348 24.059 15.3374 24.1051 15.3374 24.1511V24.2945C15.3374 24.43 15.2276 24.5399 15.092 24.5399C14.9565 24.5399 14.8466 24.43 14.8466 24.2945V24.1511C14.8466 24.1104 14.8432 24.0697 14.8364 24.0296C14.8348 24.0197 14.8329 24.0099 14.8308 24.0001C14.43 22.1092 13.1401 20.9498 11.6491 20.5221C11.6247 20.5151 11.6003 20.5083 11.5758 20.5017C11.4864 20.4775 11.3963 20.456 11.3057 20.4371C11.0079 20.375 10.7044 20.3411 10.4004 20.3353C10.338 20.3341 10.2756 20.3341 10.2132 20.3353C9.90913 20.3411 9.60564 20.375 9.30788 20.4371C9.21724 20.456 9.12713 20.4775 9.03769 20.5017C9.01323 20.5083 8.98882 20.5151 8.96446 20.5221C7.47341 20.9498 6.18351 22.1092 5.78273 24.0001C5.78065 24.0099 5.77878 24.0197 5.77711 24.0296C5.77031 24.0697 5.76689 24.1104 5.76689 24.1511V24.2945C5.76689 24.43 5.65702 24.5399 5.52149 24.5399C5.38596 24.5399 5.27609 24.43 5.27609 24.2945V24.1511C5.27609 24.1051 5.27871 24.059 5.28391 24.0133C5.2883 23.9747 5.29453 23.9363 5.3026 23.8983C5.69759 22.0347 6.87333 20.8136 8.29156 20.2348C8.51615 20.1431 8.74682 20.0676 8.98143 20.0081C9.05662 19.9891 9.1322 19.9717 9.20813 19.9559C9.13392 19.9328 9.06073 19.9073 8.98863 19.8796ZM12.9341 19.8388C13.9481 19.0535 14.6012 17.8243 14.6012 16.4417C14.6012 14.0699 12.6785 12.1472 10.3068 12.1472C7.93499 12.1472 6.01229 14.0699 6.01229 16.4417C6.01229 17.8243 6.66541 19.0535 7.6794 19.8388C6.25963 20.5438 5.10759 21.8596 4.70243 23.7711L5.18256 23.8729L4.70243 23.7711C4.67595 23.896 4.6626 24.0234 4.6626 24.1511V24.2945C4.6626 24.7688 5.04714 25.1534 5.52149 25.1534C5.99585 25.1534 6.38039 24.7688 6.38039 24.2945V24.1511C6.38039 24.1431 6.38123 24.1351 6.38289 24.1273C7.28141 19.8881 13.3321 19.8881 14.2306 24.1273C14.2323 24.1351 14.2331 24.1431 14.2331 24.1511V24.2945C14.2331 24.7688 14.6177 25.1534 15.092 25.1534C15.5664 25.1534 15.9509 24.7688 15.9509 24.2945V24.1511C15.9509 24.0234 15.9376 23.896 15.9111 23.7711C15.5059 21.8596 14.3539 20.5438 12.9341 19.8388ZM10.3068 19.0184C11.7298 19.0184 12.8835 17.8648 12.8835 16.4417C12.8835 15.0186 11.7298 13.865 10.3068 13.865C8.8837 13.865 7.73008 15.0186 7.73008 16.4417C7.73008 17.8648 8.8837 19.0184 10.3068 19.0184Z" fill="#392E5C"/>
<path fill-rule="evenodd" clip-rule="evenodd" d="M18.4049 5.15339C18.4049 6.91528 16.9766 8.34358 15.2147 8.34358C13.4528 8.34358 12.0245 6.91528 12.0245 5.15339C12.0245 3.3915 13.4528 1.96321 15.2147 1.96321C16.9766 1.96321 18.4049 3.3915 18.4049 5.15339ZM16.3133 8.66763C17.8097 8.20032 18.8957 6.80368 18.8957 5.15339C18.8957 3.12044 17.2476 1.47241 15.2147 1.47241C13.1817 1.47241 11.5337 3.12044 11.5337 5.15339C11.5337 6.80368 12.6197 8.20032 14.1161 8.66763C12.3071 9.04263 10.6881 10.3568 10.2105 12.61C10.1929 12.6931 10.184 12.7779 10.184 12.8628V13.0062C10.184 13.1417 10.2939 13.2516 10.4294 13.2516C10.5649 13.2516 10.6748 13.1417 10.6748 13.0062V12.8628C10.6748 12.8121 10.6801 12.7614 10.6907 12.7118C11.7266 7.82424 18.7028 7.82424 19.7387 12.7118C19.7493 12.7614 19.7546 12.8121 19.7546 12.8628V13.0062C19.7546 13.1417 19.8644 13.2516 20 13.2516C20.1355 13.2516 20.2454 13.1417 20.2454 13.0062V12.8628C20.2454 12.7779 20.2365 12.6931 20.2189 12.61C19.7413 10.3568 18.1223 9.04263 16.3133 8.66763Z" fill="#392E5C"/>
<path fill-rule="evenodd" clip-rule="evenodd" d="M15.1332 8.34253C14.8306 8.33494 14.5385 8.28521 14.2624 8.19899C14.1729 8.17104 14.0851 8.13925 13.9992 8.10381C13.9789 8.09544 13.9587 8.08687 13.9387 8.07809C12.8119 7.58581 12.0245 6.46154 12.0245 5.15337C12.0245 3.39148 13.4528 1.96318 15.2147 1.96318C16.9766 1.96318 18.4049 3.39148 18.4049 5.15337C18.4049 6.46154 17.6175 7.58581 16.4908 8.07809C16.4707 8.08687 16.4505 8.09544 16.4302 8.10381C16.3443 8.13925 16.2565 8.17104 16.167 8.19899C15.891 8.28521 15.5989 8.33494 15.2963 8.34253C15.2692 8.34321 15.242 8.34355 15.2147 8.34355C15.1875 8.34355 15.1603 8.34321 15.1332 8.34253ZM13.8966 8.5913C13.6713 8.50488 13.4567 8.39696 13.2553 8.27005C12.221 7.61841 11.5337 6.46614 11.5337 5.15337C11.5337 3.12042 13.1818 1.47238 15.2147 1.47238C17.2477 1.47238 18.8957 3.12042 18.8957 5.15337C18.8957 6.46614 18.2085 7.61841 17.1742 8.27005C16.9727 8.39696 16.7581 8.50488 16.5329 8.5913C16.4608 8.61897 16.3876 8.64443 16.3134 8.6676C16.3893 8.68334 16.4649 8.70073 16.5401 8.71978C16.7747 8.77922 17.0053 8.85477 17.2299 8.94643C18.6482 9.52523 19.8239 10.7464 20.2189 12.61C20.227 12.648 20.2332 12.6864 20.2376 12.725C20.2428 12.7707 20.2454 12.8167 20.2454 12.8628V13.0061C20.2454 13.1417 20.1355 13.2515 20 13.2515C19.8645 13.2515 19.7546 13.1417 19.7546 13.0061V12.8628C19.7546 12.8221 19.7512 12.7814 19.7444 12.7413C19.7427 12.7314 19.7408 12.7215 19.7388 12.7117C19.338 10.8209 18.0481 9.66152 16.557 9.23372C16.5327 9.22673 16.5083 9.21994 16.4838 9.21334C16.3944 9.18922 16.3043 9.1677 16.2136 9.1488C15.9159 9.0867 15.6124 9.05276 15.3083 9.04698C15.2459 9.0458 15.1835 9.0458 15.1211 9.04698C14.8171 9.05276 14.5136 9.0867 14.2158 9.1488C14.1252 9.1677 14.0351 9.18922 13.9457 9.21334C13.9212 9.21994 13.8968 9.22673 13.8724 9.23372C12.3814 9.66152 11.0915 10.8209 10.6907 12.7117C10.6886 12.7215 10.6867 12.7314 10.6851 12.7413C10.6783 12.7814 10.6749 12.8221 10.6749 12.8628V13.0061C10.6749 13.1417 10.565 13.2515 10.4295 13.2515C10.2939 13.2515 10.1841 13.1417 10.1841 13.0061V12.8628C10.1841 12.8167 10.1867 12.7707 10.1919 12.725C10.1963 12.6864 10.2025 12.648 10.2106 12.61C10.6055 10.7464 11.7813 9.52523 13.1995 8.94643C13.4241 8.85477 13.6548 8.77922 13.8894 8.71978C13.9646 8.70073 14.0402 8.68334 14.1161 8.6676C14.0419 8.64443 13.9687 8.61897 13.8966 8.5913ZM17.8421 8.55043C18.8561 7.76516 19.5092 6.53595 19.5092 5.15337C19.5092 2.78159 17.5865 0.858887 15.2147 0.858887C12.843 0.858887 10.9202 2.78159 10.9202 5.15337C10.9202 6.53595 11.5734 7.76516 12.5874 8.55043C11.1676 9.25548 10.0156 10.5712 9.61039 12.4828L10.0905 12.5845L9.61039 12.4828C9.58391 12.6077 9.57056 12.7351 9.57056 12.8628V13.0061C9.57056 13.4805 9.9551 13.865 10.4295 13.865C10.9038 13.865 11.2883 13.4805 11.2883 13.0061V12.8628C11.2883 12.8548 11.2892 12.8468 11.2908 12.839C12.1894 8.5998 18.2401 8.5998 19.1386 12.839C19.1403 12.8468 19.1411 12.8548 19.1411 12.8628V13.0061C19.1411 13.4805 19.5257 13.865 20 13.865C20.4744 13.865 20.8589 13.4805 20.8589 13.0061V12.8628C20.8589 12.7351 20.8455 12.6077 20.8191 12.4828C20.4139 10.5712 19.2619 9.25548 17.8421 8.55043ZM15.2147 7.73005C16.6378 7.73005 17.7914 6.57643 17.7914 5.15337C17.7914 3.7303 16.6378 2.57668 15.2147 2.57668C13.7917 2.57668 12.638 3.7303 12.638 5.15337C12.638 6.57643 13.7917 7.73005 15.2147 7.73005Z" fill="#392E5C"/>
<path fill-rule="evenodd" clip-rule="evenodd" d="M27.9754 5.15339C27.9754 6.91528 26.5471 8.34358 24.7853 8.34358C23.0234 8.34358 21.5951 6.91528 21.5951 5.15339C21.5951 3.3915 23.0234 1.96321 24.7853 1.96321C26.5471 1.96321 27.9754 3.3915 27.9754 5.15339ZM25.8839 8.66763C27.3802 8.20032 28.4662 6.80368 28.4662 5.15339C28.4662 3.12044 26.8182 1.47241 24.7853 1.47241C22.7523 1.47241 21.1043 3.12044 21.1043 5.15339C21.1043 6.80368 22.1903 8.20032 23.6866 8.66763C21.8777 9.04263 20.2587 10.3568 19.7811 12.61C19.7635 12.6931 19.7546 12.7779 19.7546 12.8628V13.0062C19.7546 13.1417 19.8644 13.2516 20 13.2516C20.1355 13.2516 20.2454 13.1417 20.2454 13.0062V12.8628C20.2454 12.8121 20.2507 12.7614 20.2612 12.7118C21.2972 7.82424 28.2734 7.82424 29.3093 12.7118C29.3198 12.7614 29.3251 12.8121 29.3251 12.8628V13.0062C29.3251 13.1417 29.435 13.2516 29.5705 13.2516C29.7061 13.2516 29.8159 13.1417 29.8159 13.0062V12.8628C29.8159 12.7779 29.807 12.6931 29.7894 12.61C29.3118 10.3568 27.6928 9.04263 25.8839 8.66763Z" fill="#392E5C"/>
<path fill-rule="evenodd" clip-rule="evenodd" d="M24.7038 8.34253C24.4012 8.33494 24.109 8.28521 23.833 8.19899C23.7435 8.17104 23.6557 8.13925 23.5698 8.10381C23.5495 8.09544 23.5293 8.08687 23.5092 8.07809C22.3825 7.58581 21.5951 6.46154 21.5951 5.15337C21.5951 3.39148 23.0234 1.96318 24.7853 1.96318C26.5472 1.96318 27.9755 3.39148 27.9755 5.15337C27.9755 6.46154 27.1881 7.58581 26.0614 8.07809C26.0413 8.08687 26.0211 8.09544 26.0008 8.10381C25.9149 8.13925 25.8271 8.17104 25.7376 8.19899C25.4616 8.28521 25.1694 8.33494 24.8668 8.34253C24.8397 8.34321 24.8125 8.34355 24.7853 8.34355C24.758 8.34355 24.7309 8.34321 24.7038 8.34253ZM23.4671 8.5913C23.2419 8.50488 23.0273 8.39696 22.8258 8.27005C21.7915 7.61841 21.1043 6.46614 21.1043 5.15337C21.1043 3.12042 22.7523 1.47238 24.7853 1.47238C26.8182 1.47238 28.4663 3.12042 28.4663 5.15337C28.4663 6.46614 27.779 7.61841 26.7447 8.27005C26.5433 8.39696 26.3287 8.50488 26.1034 8.5913C26.0313 8.61897 25.9581 8.64443 25.8839 8.6676C25.9599 8.68334 26.0354 8.70073 26.1106 8.71978C26.3452 8.77922 26.5759 8.85477 26.8005 8.94643C28.2187 9.52523 29.3945 10.7464 29.7895 12.61C29.7975 12.648 29.8038 12.6864 29.8081 12.725C29.8133 12.7707 29.816 12.8167 29.816 12.8628V13.0061C29.816 13.1417 29.7061 13.2515 29.5706 13.2515C29.435 13.2515 29.3252 13.1417 29.3252 13.0061V12.8628C29.3252 12.8221 29.3217 12.7814 29.3149 12.7413C29.3133 12.7314 29.3114 12.7215 29.3093 12.7117C28.9085 10.8209 27.6186 9.66152 26.1276 9.23372C26.1032 9.22673 26.0788 9.21994 26.0544 9.21334C25.9649 9.18922 25.8748 9.1677 25.7842 9.1488C25.4864 9.0867 25.1829 9.05276 24.8789 9.04698C24.8165 9.0458 24.7541 9.0458 24.6917 9.04698C24.3876 9.05276 24.0842 9.0867 23.7864 9.1488C23.6958 9.1677 23.6056 9.18922 23.5162 9.21334C23.4917 9.21994 23.4673 9.22673 23.443 9.23372C21.9519 9.66152 20.662 10.8209 20.2612 12.7117C20.2592 12.7215 20.2573 12.7314 20.2556 12.7413C20.2488 12.7814 20.2454 12.8221 20.2454 12.8628V13.0061C20.2454 13.1417 20.1355 13.2515 20 13.2515C19.8645 13.2515 19.7546 13.1417 19.7546 13.0061V12.8628C19.7546 12.8167 19.7572 12.7707 19.7624 12.725C19.7668 12.6864 19.7731 12.648 19.7811 12.61C20.1761 10.7464 21.3518 9.52523 22.7701 8.94643C22.9947 8.85477 23.2253 8.77922 23.4599 8.71978C23.5351 8.70073 23.6107 8.68334 23.6866 8.6676C23.6124 8.64443 23.5392 8.61897 23.4671 8.5913ZM27.4127 8.55043C28.4266 7.76516 29.0798 6.53595 29.0798 5.15337C29.0798 2.78159 27.1571 0.858887 24.7853 0.858887C22.4135 0.858887 20.4908 2.78159 20.4908 5.15337C20.4908 6.53595 21.1439 7.76516 22.1579 8.55043C20.7381 9.25548 19.5861 10.5712 19.1809 12.4828L19.6611 12.5845L19.1809 12.4828C19.1545 12.6077 19.1411 12.7351 19.1411 12.8628V13.0061C19.1411 13.4805 19.5257 13.865 20 13.865C20.4744 13.865 20.8589 13.4805 20.8589 13.0061V12.8628C20.8589 12.8548 20.8597 12.8468 20.8614 12.839C21.7599 8.5998 27.8106 8.5998 28.7092 12.839C28.7108 12.8468 28.7117 12.8548 28.7117 12.8628V13.0061C28.7117 13.4805 29.0962 13.865 29.5706 13.865C30.0449 13.865 30.4295 13.4805 30.4295 13.0061V12.8628C30.4295 12.7351 30.4161 12.6077 30.3896 12.4828C29.9845 10.5712 28.8324 9.25548 27.4127 8.55043ZM24.7853 7.73005C26.2083 7.73005 27.362 6.57643 27.362 5.15337C27.362 3.7303 26.2083 2.57668 24.7853 2.57668C23.3622 2.57668 22.2086 3.7303 22.2086 5.15337C22.2086 6.57643 23.3622 7.73005 24.7853 7.73005Z" fill="#392E5C"/>
<path fill-rule="evenodd" clip-rule="evenodd" d="M0 38.2822C0 37.8079 0.384541 37.4233 0.858896 37.4233H39.1411C39.6155 37.4233 40 37.8079 40 38.2822C40 38.7566 39.6155 39.1411 39.1411 39.1411H0.858896C0.384541 39.1411 0 38.7566 0 38.2822Z" fill="#392E5C"/>
</svg>
