<svg width="40" height="40" viewBox="0 0 40 40" fill="none" xmlns="http://www.w3.org/2000/svg">
<path fill-rule="evenodd" clip-rule="evenodd" d="M17.4463 3.92308C14.0316 3.92308 11.2634 6.7586 11.2634 10.2564C11.2634 13.7542 14.0316 16.5897 17.4463 16.5897C20.861 16.5897 23.6293 13.7542 23.6293 10.2564C23.6293 6.75861 20.861 3.92308 17.4463 3.92308ZM8.40974 10.2564C8.40974 5.14423 12.4556 1 17.4463 1C22.437 1 26.4829 5.14422 26.4829 10.2564C26.4829 15.3686 22.437 19.5128 17.4463 19.5128C12.4556 19.5128 8.40974 15.3686 8.40974 10.2564ZM39.3821 13.1204C39.9393 13.6911 39.9393 14.6165 39.3821 15.1873L33.2945 21.423C32.7373 21.9938 31.8339 21.9938 31.2767 21.4231L27.8521 17.9156C27.2949 17.3448 27.2948 16.4194 27.852 15.8486C28.4092 15.2778 29.3126 15.2778 29.8698 15.8485L32.2855 18.3227L37.3642 13.1204C37.9215 12.5496 38.8249 12.5496 39.3821 13.1204ZM9.83657 27.3077C6.42184 27.3077 3.65365 30.1433 3.65365 33.641V36.0769H31.239V33.641C31.239 30.1433 28.4707 27.3077 25.0561 27.3077H9.83657ZM0.799988 33.641C0.799988 28.5289 4.84579 24.3846 9.83657 24.3846H25.0561C30.0468 24.3846 34.0927 28.5289 34.0927 33.641V37.5385C34.0927 38.3456 33.4539 39 32.6658 39H2.22682C1.4388 39 0.799988 38.3456 0.799988 37.5385V33.641Z" fill="#392E5C"/>
</svg>
