<svg width="120" height="120" viewBox="0 0 120 120" fill="none" xmlns="http://www.w3.org/2000/svg">
<path fill-rule="evenodd" clip-rule="evenodd" d="M16.4016 95.3546C16.4016 93.6977 17.7448 92.3546 19.4016 92.3546H23.4016C25.0585 92.3546 26.4016 93.6977 26.4016 95.3546V106.855C26.4016 108.511 25.0585 109.855 23.4016 109.855H19.4016C17.7448 109.855 16.4016 108.511 16.4016 106.855V95.3546Z" fill="#FFB87F"/>
<path fill-rule="evenodd" clip-rule="evenodd" d="M108.872 12.3546C108.872 12.3546 106.049 12.391 103.081 12.4083C101.598 12.4158 100.078 12.4208 98.8674 12.4133C97.657 12.4058 96.4832 12.3445 96.6946 12.3693C96.3681 12.3305 96.0373 12.3564 95.7209 12.4457C95.4045 12.5349 95.1088 12.6856 94.8507 12.8892C94.5926 13.0929 94.3773 13.3454 94.2169 13.6324C94.0566 13.9194 93.9544 14.2352 93.9163 14.5617C93.8774 14.8881 93.9034 15.219 93.9926 15.5354C94.0818 15.8518 94.2326 16.1475 94.4362 16.4055C94.6398 16.6636 94.8924 16.879 95.1794 17.0393C95.4664 17.1997 95.7821 17.3018 96.1086 17.34C96.9102 17.434 97.5941 17.4067 98.8381 17.4132C99.912 17.4207 101.206 17.4207 102.5 17.4132L71.8508 46.0216L63.4817 33.4679C62.6516 32.2222 60.9204 31.9801 59.7805 32.9503L9.78056 75.4503C8.72839 76.3454 8.60156 77.9242 9.49736 78.9757C10.3924 80.0279 11.9712 80.1547 13.0227 79.2589L60.8792 38.5802L69.3215 51.2414C70.1778 52.5229 71.9785 52.7321 73.1057 51.6808L106.402 20.6065V27.3546C106.402 28.0176 106.665 28.6535 107.134 29.1223C107.603 29.5911 108.239 29.8546 108.902 29.8546C109.565 29.8546 110.201 29.5911 110.669 29.1223C111.138 28.6535 111.402 28.0176 111.402 27.3546V14.8546C111.402 14.5238 111.336 14.1963 111.209 13.8911C111.081 13.5858 110.894 13.309 110.659 13.0765C110.424 12.8439 110.145 12.6604 109.838 12.5365C109.531 12.4125 109.203 12.3507 108.872 12.3546Z" fill="#392E5C"/>
<path fill-rule="evenodd" clip-rule="evenodd" d="M23.9016 9.96198C23.5585 9.96204 23.2187 10.024 22.9017 10.1442C22.5848 10.2645 22.2968 10.4408 22.0542 10.663C21.8116 10.8851 21.6192 11.1489 21.488 11.4391C21.3567 11.7293 21.2892 12.0404 21.2893 12.3546V16.2657C17.1387 17.286 14.0042 20.6671 14.0042 24.7276C14.0042 29.6049 18.5263 33.502 23.9016 33.502C26.5712 33.502 28.5745 35.3224 28.5745 37.501C28.5745 39.6797 26.5712 41.5001 23.9016 41.5001C21.232 41.5001 19.2337 39.6797 19.2336 37.501C19.2324 36.8667 18.9559 36.2588 18.4651 35.8111C17.9743 35.3633 17.3094 35.1123 16.6165 35.1133C15.9244 35.1135 15.2607 35.3649 14.7709 35.8126C14.2812 36.2602 14.0054 36.8675 14.0042 37.501C14.0042 41.5616 17.1387 44.9426 21.2893 45.963V49.8741C21.2892 50.1882 21.3567 50.4993 21.488 50.7895C21.6192 51.0798 21.8116 51.3435 22.0542 51.5657C22.2968 51.7878 22.5848 51.9641 22.9017 52.0844C23.2187 52.2047 23.5585 52.2666 23.9016 52.2667C24.2447 52.2666 24.5845 52.2047 24.9015 52.0844C25.2185 51.9641 25.5065 51.7878 25.749 51.5657C25.9916 51.3435 26.184 51.0798 26.3152 50.7895C26.4465 50.4993 26.514 50.1882 26.5139 49.8741V45.963C30.6637 44.9412 33.799 41.56 33.799 37.501C33.799 32.6237 29.2769 28.7217 23.9016 28.7217C21.232 28.7217 19.2336 26.9062 19.2336 24.7276C19.2336 22.549 21.232 20.7286 23.9016 20.7286C26.5712 20.7286 28.5745 22.549 28.5745 24.7276C28.5757 25.3604 28.8508 25.9669 29.3395 26.4145C29.8282 26.862 30.4907 27.114 31.1819 27.1153C31.8748 27.1164 32.5398 26.8654 33.0306 26.4176C33.5214 25.9698 33.7978 25.3619 33.799 24.7276C33.799 20.6686 30.6637 17.2874 26.5139 16.2657V12.3546C26.514 12.0404 26.4465 11.7293 26.3152 11.4391C26.184 11.1489 25.9916 10.8851 25.749 10.663C25.5065 10.4408 25.2185 10.2645 24.9015 10.1442C24.5845 10.024 24.2447 9.96204 23.9016 9.96198Z" fill="#392E5C"/>
<path fill-rule="evenodd" clip-rule="evenodd" d="M36.3889 82.8545C36.3889 81.1976 37.7321 79.8545 39.3889 79.8545H43.3889C45.0458 79.8545 46.3889 81.1976 46.3889 82.8545V106.854C46.3889 108.511 45.0458 109.854 43.3889 109.854H39.3889C37.7321 109.854 36.3889 108.511 36.3889 106.854C36.3889 98.8545 36.3889 90.8545 36.3889 82.8545Z" fill="#FF9166"/>
<path fill-rule="evenodd" clip-rule="evenodd" d="M56.3889 70.6323C56.3889 68.9754 57.7321 67.6323 59.3889 67.6323H63.3889C65.0458 67.6323 66.3889 68.9754 66.3889 70.6323V106.854C66.3889 108.511 65.0458 109.854 63.3889 109.854H59.3889C57.7321 109.854 56.3889 108.511 56.3889 106.854C56.3889 94.7804 56.3889 82.7063 56.3889 70.6323Z" fill="#E7E7E7"/>
<path fill-rule="evenodd" clip-rule="evenodd" d="M76.3889 62.8546C76.3889 61.1977 77.7321 59.8546 79.3889 59.8546H83.3889C85.0458 59.8546 86.3889 61.1977 86.3889 62.8546V106.855C86.3889 108.511 85.0458 109.855 83.3889 109.855H79.3889C77.7321 109.855 76.3889 108.511 76.3889 106.855C76.3889 92.1879 76.3889 77.5212 76.3889 62.8546Z" fill="#E7E7E7"/>
<path fill-rule="evenodd" clip-rule="evenodd" d="M96.3889 47.8546C96.3889 46.1977 97.7321 44.8546 99.3889 44.8546H103.389C105.046 44.8546 106.389 46.1977 106.389 47.8546V106.855C106.389 108.511 105.046 109.855 103.389 109.855H99.3889C97.7321 109.855 96.3889 108.511 96.3889 106.855C96.3889 87.1879 96.3889 67.5212 96.3889 47.8546Z" fill="#E7E7E7"/>
</svg>
