<svg width="124" height="120" viewBox="0 0 124 120" fill="none" xmlns="http://www.w3.org/2000/svg">
<rect x="42" y="11" width="40" height="40" rx="20" fill="#4FBA6F"/>
<path d="M71.3241 23.7011C72.2253 24.6359 72.2253 26.1515 71.3241 27.0862L61.4782 37.2989C60.5771 38.2337 59.116 38.2337 58.2148 37.299L52.676 31.5545C51.7747 30.6198 51.7747 29.1042 52.6758 28.1694C53.577 27.2345 55.0381 27.2344 55.9394 28.1692L59.8464 32.2213L68.0605 23.7011C68.9617 22.7663 70.4229 22.7663 71.3241 23.7011Z" fill="white"/>
<path d="M41.8889 54.142L34.1642 64.7636C33.3815 65.8397 33.7842 67.3598 34.9981 67.9116C40.2546 70.3009 46.4687 68.8492 50.1093 64.3813L54.1758 59.3906C54.3647 59.1589 54.6201 58.9901 54.9079 58.9069L61.5573 56.9848C61.8738 56.8933 62.2154 56.9663 62.4663 57.179L93.4389 83.4405L94.9049 83.0756C99.7313 81.8741 104.173 79.4734 107.814 76.098L109.371 74.6544L91.2329 43.9032L80.1303 46.6104C79.5395 46.7545 78.9184 46.7127 78.3525 46.4907L67.7004 42.3125C64.7611 41.1595 61.4529 41.4142 58.7264 43.0033L48.0929 49.201L44.4347 51.68C43.4494 52.3477 42.588 53.1808 41.8889 54.142Z" fill="#FFC7B3"/>
<path fill-rule="evenodd" clip-rule="evenodd" d="M91.2329 43.9032L109.371 74.6544C110.328 76.1517 112.305 76.6245 113.84 75.7235L120.586 71.7657C122.92 70.3961 123.696 67.4009 122.318 65.0782L105.715 37.0871C104.346 34.7801 101.366 34.0026 99.0376 35.345L92.3313 39.2109C90.6739 40.1663 90.1705 42.3165 91.2329 43.9032ZM116.48 66.1124V66.3564C116.48 67.8391 115.272 69.0411 113.783 69.0411C112.294 69.0411 111.087 67.8391 111.087 66.3564V66.1124C111.087 64.6297 112.294 63.4278 113.783 63.4278C115.272 63.4278 116.48 64.6297 116.48 66.1124Z" fill="#392E5C"/>
<path fill-rule="evenodd" clip-rule="evenodd" d="M14.2672 73.4341L33.8763 44.6353L33.9333 44.5596C35.105 43.0041 34.7386 40.7899 33.1277 39.6909L25.6634 34.5985C24.1053 33.5355 21.9774 33.926 20.9023 35.4722L0.610576 64.6562C-0.497928 66.2505 -0.0533179 68.4427 1.58967 69.4838L9.49163 74.4906C10.9576 75.4195 12.8895 75.1107 13.9899 73.7716L14.2672 73.4341ZM13.0417 65.1362V65.3802C13.0417 66.8629 11.8345 68.0648 10.3454 68.0648C8.85631 68.0648 7.64915 66.8629 7.64915 65.3802V65.1362C7.64915 63.6535 8.85631 62.4515 10.3454 62.4515C11.8345 62.4515 13.0417 63.6535 13.0417 65.1362Z" fill="#392E5C"/>
<path fill-rule="evenodd" clip-rule="evenodd" d="M26.4687 78.3334L23.6055 81.8755C21.6006 84.3557 21.7496 87.9391 23.9535 90.2443L25.7876 89.5419L29.7094 84.1726V82.6277C29.7094 81.8799 29.5209 81.144 29.1613 80.4875L29.1159 80.4046C28.5558 79.3822 27.5988 78.6335 26.4687 78.3334Z" fill="#FFC7B3"/>
<path fill-rule="evenodd" clip-rule="evenodd" d="M37.7407 79.1097L30.8754 88.2209C28.8175 90.952 29.2511 94.815 31.8634 97.0219L33.141 96.1315L40.9846 85.3929V83.8921C40.9846 82.8055 40.6388 81.7468 39.997 80.8681L39.8191 80.6246C39.3018 79.9163 38.5751 79.3867 37.7407 79.1097Z" fill="#FFC7B3"/>
<path fill-rule="evenodd" clip-rule="evenodd" d="M46.472 82.5236L38.6077 93.594C36.6071 96.4103 37.2433 100.312 40.035 102.346L40.1172 102.294C40.6898 101.932 41.1846 101.46 41.5731 100.905L42.1824 100.036L47.487 92.4706L49.3661 89.7906C49.8168 89.1478 50.0913 88.3991 50.1626 87.6185C50.2511 86.649 50.022 85.6771 49.5096 84.848L49.3417 84.5763C48.6995 83.5373 47.6659 82.7979 46.472 82.5236Z" fill="#FFC7B3"/>
<path fill-rule="evenodd" clip-rule="evenodd" d="M52.2097 92.3098L48.6612 97.071C46.7726 99.605 47.5379 103.221 50.2912 104.773L53.6672 100.036L54.1763 99.3221C54.5296 98.8264 54.7869 98.2694 54.935 97.6798L54.9953 97.4394C55.2832 96.2927 55.0854 95.0786 54.4481 94.0814C53.9806 93.35 53.3023 92.776 52.502 92.4345L52.2097 92.3098Z" fill="#FFC7B3"/>
<path fill-rule="evenodd" clip-rule="evenodd" d="M34.1642 64.7636L41.8889 54.142C42.588 53.1808 43.4494 52.3477 44.4347 51.68L48.0929 49.201L36.9557 46.1376C36.8639 46.1124 36.7748 46.0783 36.6896 46.0359L33.8763 44.6353L14.2672 73.4341L21.3755 80.0237L22.9395 78.9455C23.9688 78.236 25.2591 78.0122 26.4687 78.3334C27.5988 78.6335 28.5558 79.3822 29.1159 80.4046L29.1613 80.4875C29.5209 81.144 29.7094 81.8799 29.7094 82.6277V84.1726L32.4327 80.8799C32.8997 80.3154 33.4804 79.8547 34.1374 79.5276L34.5188 79.3377C35.5199 78.8393 36.6788 78.7573 37.7407 79.1097C38.5751 79.3867 39.3018 79.9163 39.8191 80.6246L39.997 80.8681C40.6388 81.7468 40.9846 82.8055 40.9846 83.8921V85.3929L41.6187 84.4459C42.1622 83.6342 42.9547 83.0156 43.8754 82.6822C44.7067 82.3813 45.6102 82.3256 46.472 82.5236C47.6659 82.7979 48.6995 83.5373 49.3417 84.5763L49.5096 84.848C50.022 85.6771 50.2511 86.649 50.1626 87.6185C50.0913 88.3991 49.8168 89.1478 49.3661 89.7906L47.487 92.4706L48.3359 92.1759C49.5987 91.7375 50.9805 91.7852 52.2097 92.3098L52.502 92.4345C53.3023 92.776 53.9806 93.35 54.4481 94.0814C55.0854 95.0786 55.2832 96.2927 54.9953 97.4394L54.935 97.6798C54.7869 98.2694 54.5296 98.8264 54.1763 99.3221L53.6672 100.036L59.717 103.971C62.0356 105.48 65.0701 105.284 67.1755 103.49L66.4764 101.242L57.6523 94.179L60.7882 91.5976L68.9621 97.9458C71.3605 99.8085 74.7192 99.7983 77.1062 97.9211L76.5261 96.5018L66.4764 88.5657L70.3476 85.4961L81.5685 94.0618C83.6091 95.6195 86.4547 95.5629 88.4316 93.9253L88.0464 92.2265L75.5456 82.4642L79.4168 79.6388L87.6316 85.8551C89.8801 87.5566 93.0748 87.1563 94.834 84.9527L93.4389 83.4405L62.4663 57.179C62.2154 56.9663 61.8738 56.8933 61.5573 56.9848L54.9079 58.9069C54.6201 58.9901 54.3647 59.1589 54.1758 59.3906L50.1093 64.3813C46.4687 68.8492 40.2546 70.3009 34.9981 67.9116C33.7842 67.3598 33.3815 65.8397 34.1642 64.7636Z" fill="#FFDECF"/>
<path d="M88.0464 92.2265L89.3443 92.763C94.1943 94.7674 98.3863 88.8034 94.834 84.9527C93.0748 87.1563 89.8801 87.5566 87.6316 85.8551L79.4168 79.6388L75.5456 82.4642L88.0464 92.2265Z" fill="#FFC7B3"/>
<path d="M76.5261 96.5018L78.3203 97.9186C79.8568 99.132 81.7603 99.7923 83.7214 99.7923C86.8174 99.7923 89.1136 96.9322 88.4316 93.9253C86.4547 95.5629 83.6091 95.6195 81.5685 94.0618L70.3476 85.4961L66.4764 88.5657L76.5261 96.5018Z" fill="#FFC7B3"/>
<path d="M66.4764 101.242L67.7652 102.274C69.3029 103.505 71.2424 104.128 73.2128 104.025C76.2733 103.865 78.2616 100.747 77.1062 97.9211C74.7192 99.7983 71.3605 99.8085 68.9621 97.9458L60.7882 91.5976L57.6523 94.179L66.4764 101.242Z" fill="#FFC7B3"/>
<path d="M51.6802 102.824L58.1417 107.497C59.716 108.661 61.6791 109.18 63.626 108.945C66.259 108.627 67.9602 106.012 67.1755 103.49C65.0701 105.284 62.0356 105.48 59.717 103.971L53.6672 100.036L51.6802 102.824Z" fill="#FFC7B3"/>
<path d="M48.3359 92.1759L47.487 92.4706L42.1824 100.036L41.9663 101.405C41.8071 102.413 42.0088 103.444 42.536 104.319C42.9635 105.029 43.5854 105.602 44.3287 105.972L44.7103 106.162C45.6293 106.62 46.6796 106.744 47.6807 106.514C48.7357 106.272 49.6646 105.652 50.2912 104.773C47.5379 103.221 46.7726 99.605 48.6612 97.071L52.2097 92.3098C50.9805 91.7852 49.5987 91.7375 48.3359 92.1759Z" fill="#F9AD95"/>
<path d="M40.9846 85.3929L33.141 96.1315L32.7765 97.7041C32.5374 98.7354 32.6836 99.8182 33.1876 100.75C33.7814 101.848 34.8194 102.64 36.0388 102.926L36.2731 102.981C37.5617 103.283 38.9181 103.054 40.035 102.346C37.2433 100.312 36.6071 96.4103 38.6077 93.594L46.472 82.5236C45.6102 82.3256 44.7067 82.3813 43.8754 82.6822C42.9547 83.0156 42.1622 83.6342 41.6187 84.4459L40.9846 85.3929Z" fill="#F9AD95"/>
<path d="M29.7094 84.1726L25.7876 89.5419L25.0588 90.9932C24.7321 91.6438 24.562 92.3612 24.562 93.0886C24.562 94.2609 25.0033 95.3906 25.7989 96.2547L25.9074 96.3726C26.7682 97.3075 27.9835 97.8399 29.2573 97.8399C30.1897 97.8399 31.0995 97.5543 31.8634 97.0219C29.2511 94.815 28.8175 90.952 30.8754 88.2209L37.7407 79.1097C36.6788 78.7573 35.5199 78.8393 34.5188 79.3377L34.1374 79.5276C33.4804 79.8547 32.8997 80.3154 32.4327 80.8799L29.7094 84.1726Z" fill="#F9AD95"/>
<path d="M21.3755 80.0237L18.8687 83.4112C18.268 84.2229 17.9439 85.2047 17.9439 86.213V86.4464C17.9439 87.3454 18.2449 88.2188 18.7992 88.9284C19.3567 89.6422 20.1385 90.1492 21.0195 90.3685L21.1953 90.4123C22.1102 90.64 23.0733 90.5813 23.9535 90.2443C21.7496 87.9391 21.6006 84.3557 23.6055 81.8755L26.4687 78.3334C25.2591 78.0122 23.9688 78.236 22.9395 78.9455L21.3755 80.0237Z" fill="#F9AD95"/>
</svg>
