<svg width="120" height="120" viewBox="0 0 120 120" fill="none" xmlns="http://www.w3.org/2000/svg">
<path fill-rule="evenodd" clip-rule="evenodd" d="M95.0347 29.6271V17C95.0347 13.6863 92.3484 11 89.0347 11H13.2222L11.4517 11.8869C10.4422 12.3925 9.5644 13.1263 8.88778 14.03C7.94632 15.2876 7.4375 16.8162 7.4375 18.3871V29.6271H95.0347ZM30.7863 22.1762C29.7576 22.1762 28.9236 21.3423 28.9236 20.3135C28.9236 19.2848 29.7576 18.4508 30.7863 18.4508H72.9255C73.9542 18.4508 74.7882 19.2848 74.7882 20.3135C74.7882 21.3423 73.9542 22.1762 72.9255 22.1762H30.7863ZM25.6181 20.3135C25.6181 19.2866 24.7856 18.4508 23.7587 18.4508C22.7318 18.4508 21.8993 19.2866 21.8993 20.3135C21.8993 21.3404 22.7318 22.1762 23.7587 22.1762C24.7856 22.1762 25.6181 21.3404 25.6181 20.3135ZM19.4201 20.3135C19.4201 19.2866 18.5877 18.4508 17.5608 18.4508C16.5339 18.4508 15.7014 19.2866 15.7014 20.3135C15.7014 21.3404 16.5339 22.1762 17.5608 22.1762C18.5877 22.1762 19.4201 21.3404 19.4201 20.3135ZM13.2222 20.3135C13.2222 19.2866 12.3898 18.4508 11.3628 18.4508C10.3359 18.4508 9.50347 19.2866 9.50347 20.3135C9.50347 21.3404 10.3359 22.1762 11.3628 22.1762C12.3898 22.1762 13.2222 21.3404 13.2222 20.3135ZM79.5433 22.1762C78.5145 22.1762 77.6806 21.3423 77.6806 20.3135C77.6806 19.2848 78.5145 18.4508 79.5433 18.4508H86.5609C87.5897 18.4508 88.4236 19.2848 88.4236 20.3135C88.4236 21.3423 87.5897 22.1762 86.5609 22.1762H79.5433Z" fill="#392E5C"/>
<path d="M6 11C2.68629 11 0 13.6863 0 17V29.6271H7.4375V18.3871C7.4375 16.8162 7.94632 15.2876 8.88778 14.03C9.5644 13.1263 10.4422 12.3925 11.4517 11.8869L13.2222 11H7.4375H6Z" fill="#2B2246"/>
<path d="M79.5433 18.4508C78.5145 18.4508 77.6806 19.2848 77.6806 20.3135C77.6806 21.3423 78.5145 22.1762 79.5433 22.1762H86.5609C87.5897 22.1762 88.4236 21.3423 88.4236 20.3135C88.4236 19.2848 87.5897 18.4508 86.5609 18.4508H79.5433Z" fill="#E7E7E7"/>
<path d="M30.7863 18.4508C29.7576 18.4508 28.9236 19.2848 28.9236 20.3135C28.9236 21.3423 29.7576 22.1762 30.7863 22.1762H72.9255C73.9542 22.1762 74.7882 21.3423 74.7882 20.3135C74.7882 19.2848 73.9542 18.4508 72.9255 18.4508H30.7863Z" fill="#E7E7E7"/>
<path d="M9.50347 20.3135C9.50347 19.2866 10.3359 18.4508 11.3628 18.4508C12.3898 18.4508 13.2222 19.2866 13.2222 20.3135C13.2222 21.3404 12.3898 22.1762 11.3628 22.1762C10.3359 22.1762 9.50347 21.3404 9.50347 20.3135Z" fill="#F84A46"/>
<path d="M15.7014 20.3135C15.7014 19.2866 16.5339 18.4508 17.5608 18.4508C18.5877 18.4508 19.4201 19.2866 19.4201 20.3135C19.4201 21.3404 18.5877 22.1762 17.5608 22.1762C16.5339 22.1762 15.7014 21.3404 15.7014 20.3135Z" fill="#FEB60C"/>
<path d="M21.8993 20.3135C21.8993 19.2866 22.7318 18.4508 23.7587 18.4508C24.7856 18.4508 25.6181 19.2866 25.6181 20.3135C25.6181 21.3404 24.7856 22.1762 23.7587 22.1762C22.7318 22.1762 21.8993 21.3404 21.8993 20.3135Z" fill="#91B520"/>
<path fill-rule="evenodd" clip-rule="evenodd" d="M33.1632 66.0533C31.5063 66.0533 30.1632 64.7101 30.1632 63.0533V53.0143V42.9754C30.1632 41.3186 31.5063 39.9754 33.1632 39.9754H40.4931H95.0347V29.6271H7.4375V103.762C7.4375 104.827 7.66063 105.88 8.0925 106.853C8.74121 108.316 9.83345 109.537 11.2146 110.344L14.0486 112H89.0347C92.3484 112 95.0347 109.314 95.0347 106V100.824H40.4931H33.1632C31.5063 100.824 30.1632 99.4806 30.1632 97.8238V78.9877C30.1632 77.3309 31.5063 75.9877 33.1632 75.9877H40.4931H95.0347V66.0533H40.4931H33.1632ZM13.842 46.5984H10.9497C9.92275 46.5984 9.09028 45.7644 9.09028 44.7357C9.09028 43.7069 9.92275 42.873 10.9497 42.873H13.842C14.8689 42.873 15.7014 43.7069 15.7014 44.7357C15.7014 45.7644 14.8689 46.5984 13.842 46.5984ZM13.842 54.8771H10.9497C9.92275 54.8771 9.09028 54.0431 9.09028 53.0143C9.09028 51.9856 9.92275 51.1516 10.9497 51.1516H13.842C14.8689 51.1516 15.7014 51.9856 15.7014 53.0143C15.7014 54.0431 14.8689 54.8771 13.842 54.8771ZM13.842 63.1557H10.9497C9.92275 63.1557 9.09028 62.3218 9.09028 61.293C9.09028 60.2643 9.92275 59.4303 10.9497 59.4303H13.842C14.8689 59.4303 15.7014 60.2643 15.7014 61.293C15.7014 62.3218 14.8689 63.1557 13.842 63.1557ZM13.842 71.4344H10.9497C9.92275 71.4344 9.09028 70.6005 9.09028 69.5717C9.09028 68.543 9.92275 67.709 10.9497 67.709H13.842C14.8689 67.709 15.7014 68.543 15.7014 69.5717C15.7014 70.6005 14.8689 71.4344 13.842 71.4344ZM13.842 79.7131H10.9497C9.92275 79.7131 9.09028 78.8792 9.09028 77.8504C9.09028 76.8217 9.92275 75.9877 10.9497 75.9877H13.842C14.8689 75.9877 15.7014 76.8217 15.7014 77.8504C15.7014 78.8792 14.8689 79.7131 13.842 79.7131ZM13.842 87.9918H10.9497C9.92275 87.9918 9.09028 87.1578 9.09028 86.1291C9.09028 85.1004 9.92275 84.2664 10.9497 84.2664H13.842C14.8689 84.2664 15.7014 85.1004 15.7014 86.1291C15.7014 87.1578 14.8689 87.9918 13.842 87.9918ZM13.842 96.2705H10.9497C9.92275 96.2705 9.09028 95.4365 9.09028 94.4078C9.09028 93.3791 9.92275 92.5451 10.9497 92.5451H13.842C14.8689 92.5451 15.7014 93.3791 15.7014 94.4078C15.7014 95.4365 14.8689 96.2705 13.842 96.2705Z" fill="#E4E4E4"/>
<path d="M10.9497 46.5984H13.842C14.8689 46.5984 15.7014 45.7644 15.7014 44.7357C15.7014 43.7069 14.8689 42.873 13.842 42.873H10.9497C9.92275 42.873 9.09028 43.7069 9.09028 44.7357C9.09028 45.7644 9.92275 46.5984 10.9497 46.5984Z" fill="#392E5C"/>
<path d="M10.9497 63.1557H13.842C14.8689 63.1557 15.7014 62.3218 15.7014 61.293C15.7014 60.2643 14.8689 59.4303 13.842 59.4303H10.9497C9.92275 59.4303 9.09028 60.2643 9.09028 61.293C9.09028 62.3218 9.92275 63.1557 10.9497 63.1557Z" fill="#392E5C"/>
<path d="M10.9497 79.7131H13.842C14.8689 79.7131 15.7014 78.8792 15.7014 77.8504C15.7014 76.8217 14.8689 75.9877 13.842 75.9877H10.9497C9.92275 75.9877 9.09028 76.8217 9.09028 77.8504C9.09028 78.8792 9.92275 79.7131 10.9497 79.7131Z" fill="#392E5C"/>
<path d="M10.9497 96.2705H13.842C14.8689 96.2705 15.7014 95.4365 15.7014 94.4078C15.7014 93.3791 14.8689 92.5451 13.842 92.5451H10.9497C9.92275 92.5451 9.09028 93.3791 9.09028 94.4078C9.09028 95.4365 9.92275 96.2705 10.9497 96.2705Z" fill="#392E5C"/>
<path fill-rule="evenodd" clip-rule="evenodd" d="M116 66.0533C117.657 66.0533 119 64.7101 119 63.0533V42.9754C119 41.3186 117.657 39.9754 116 39.9754H95.0347H40.4931L39.4088 40.6271C38.7642 41.0146 38.225 41.5547 37.8386 42.1999C37.4125 42.9112 37.1875 43.7248 37.1875 44.554V60.6234C37.1875 61.7299 37.5459 62.8066 38.209 63.6923C38.3542 63.8863 38.513 64.0697 38.6841 64.2411L40.4931 66.0533H95.0347H116ZM53.9252 50.7377C52.8965 50.7377 52.0625 49.9037 52.0625 48.875C52.0625 47.8463 52.8965 47.0123 53.9252 47.0123H76.6442C77.673 47.0123 78.5069 47.8463 78.5069 48.875C78.5069 49.9037 77.673 50.7377 76.6442 50.7377H53.9252ZM77.8905 59.0164C76.8617 59.0164 76.0278 58.1824 76.0278 57.1537C76.0278 56.1249 76.8617 55.291 77.8905 55.291H100.61C101.638 55.291 102.472 56.1249 102.472 57.1537C102.472 58.1824 101.638 59.0164 100.61 59.0164H89.25H77.8905ZM64.6683 59.0164C63.6395 59.0164 62.8056 58.1824 62.8056 57.1537C62.8056 56.1249 63.6395 55.291 64.6683 55.291H70.8595C71.8883 55.291 72.7222 56.1249 72.7222 57.1537C72.7222 58.1824 71.8883 59.0164 70.8595 59.0164H64.6683ZM84.5016 50.7377C83.4729 50.7377 82.6389 49.9037 82.6389 48.875C82.6389 47.8463 83.4729 47.0123 84.5016 47.0123H90.6928C91.7216 47.0123 92.5556 47.8463 92.5556 48.875C92.5556 49.9037 91.7216 50.7377 90.6928 50.7377H84.5016ZM98.5502 50.7377C97.5215 50.7377 96.6875 49.9037 96.6875 48.875C96.6875 47.8463 97.5215 47.0123 98.5502 47.0123H108.873C109.902 47.0123 110.736 47.8463 110.736 48.875C110.736 49.9037 109.902 50.7377 108.873 50.7377H98.5502ZM41.5294 59.0164C40.5006 59.0164 39.6667 58.1824 39.6667 57.1537C39.6667 56.1249 40.5006 55.291 41.5294 55.291H44.4151C45.4438 55.291 46.2778 56.1249 46.2778 57.1537C46.2778 58.1824 45.4438 59.0164 44.4151 59.0164H41.5294ZM53.9252 59.0164C52.8965 59.0164 52.0625 58.1824 52.0625 57.1537C52.0625 56.1249 52.8965 55.291 53.9252 55.291H56.8109C57.8396 55.291 58.6736 56.1249 58.6736 57.1537C58.6736 58.1824 57.8396 59.0164 56.8109 59.0164H53.9252ZM41.5294 50.7377C40.5006 50.7377 39.6667 49.9037 39.6667 48.875C39.6667 47.8463 40.5006 47.0123 41.5294 47.0123H44.4151C45.4438 47.0123 46.2778 47.8463 46.2778 48.875C46.2778 49.9037 45.4438 50.7377 44.4151 50.7377H41.5294ZM109.29 59.0164C108.263 59.0164 107.431 58.1806 107.431 57.1537C107.431 56.1268 108.263 55.291 109.29 55.291C110.317 55.291 111.149 56.1268 111.149 57.1537C111.149 58.1806 110.317 59.0164 109.29 59.0164Z" fill="#52A5D8"/>
<path d="M33.1632 39.9754C31.5063 39.9754 30.1632 41.3186 30.1632 42.9754V53.0143V63.0533C30.1632 64.7101 31.5063 66.0533 33.1632 66.0533H40.4931L38.6841 64.2411C38.513 64.0697 38.3542 63.8863 38.209 63.6923C37.5459 62.8066 37.1875 61.7299 37.1875 60.6234V44.554C37.1875 43.7248 37.4125 42.9112 37.8386 42.1999C38.225 41.5547 38.7642 41.0146 39.4088 40.6271L40.4931 39.9754H33.1632Z" fill="#4288B4"/>
<path d="M41.5294 55.291C40.5006 55.291 39.6667 56.1249 39.6667 57.1537C39.6667 58.1824 40.5006 59.0164 41.5294 59.0164H44.4151C45.4438 59.0164 46.2778 58.1824 46.2778 57.1537C46.2778 56.1249 45.4438 55.291 44.4151 55.291H41.5294Z" fill="#FFB87F"/>
<path d="M64.6683 55.291C63.6395 55.291 62.8056 56.1249 62.8056 57.1537C62.8056 58.1824 63.6395 59.0164 64.6683 59.0164H70.8595C71.8883 59.0164 72.7222 58.1824 72.7222 57.1537C72.7222 56.1249 71.8883 55.291 70.8595 55.291H64.6683Z" fill="#FFB87F"/>
<path d="M98.5502 47.0123C97.5215 47.0123 96.6875 47.8463 96.6875 48.875C96.6875 49.9037 97.5215 50.7377 98.5502 50.7377H108.873C109.902 50.7377 110.736 49.9037 110.736 48.875C110.736 47.8463 109.902 47.0123 108.873 47.0123H98.5502Z" fill="#FFB87F"/>
<path d="M77.8905 55.291C76.8617 55.291 76.0278 56.1249 76.0278 57.1537C76.0278 58.1824 76.8617 59.0164 77.8905 59.0164H89.25H100.61C101.638 59.0164 102.472 58.1824 102.472 57.1537C102.472 56.1249 101.638 55.291 100.61 55.291H77.8905Z" fill="#FFB87F"/>
<path d="M41.5294 47.0123C40.5006 47.0123 39.6667 47.8463 39.6667 48.875C39.6667 49.9037 40.5006 50.7377 41.5294 50.7377H44.4151C45.4438 50.7377 46.2778 49.9037 46.2778 48.875C46.2778 47.8463 45.4438 47.0123 44.4151 47.0123H41.5294Z" fill="#FFB87F"/>
<path fill-rule="evenodd" clip-rule="evenodd" d="M116 100.824C117.657 100.824 119 99.4806 119 97.8238V78.9877C119 77.3309 117.657 75.9877 116 75.9877H95.0347H40.4931L38.4271 77.6434C37.6333 78.4386 37.1875 79.5163 37.1875 80.6398V96.1716C37.1875 97.2952 37.6333 98.3728 38.4271 99.168L40.4931 100.824H95.0347H116ZM47.1064 82.1989C46.4209 81.5123 45.3083 81.5122 44.6228 82.1989L41.021 85.8072C39.8268 87.0035 39.8563 88.9498 41.0862 90.1094L44.6354 93.4558C45.3198 94.1011 46.3935 94.0849 47.0581 93.4191C47.7584 92.7175 47.7312 91.5733 46.9983 90.9058L44.5726 88.6967C44.151 88.3127 44.1353 87.6545 44.5382 87.2509L47.1064 84.6781C47.7901 83.9931 47.7901 82.8839 47.1064 82.1989ZM66.2666 89.4035C67.0865 88.6304 67.1062 87.3329 66.3101 86.5354L61.9814 82.1989C61.2959 81.5122 60.1833 81.5123 59.4978 82.1989C58.814 82.8839 58.814 83.9931 59.4978 84.6781L62.066 87.2509C62.4688 87.6545 62.4532 88.3127 62.0316 88.6967L59.6059 90.9058C58.873 91.5733 58.8457 92.7175 59.546 93.4191C60.2106 94.0849 61.2843 94.1011 61.9688 93.4558L66.2666 89.4035ZM57.229 82.1925C57.5705 81.2801 57.1084 80.2634 56.1964 79.9208C55.2828 79.5776 54.2641 80.0407 53.922 80.9546L48.962 94.205C48.6204 95.1174 49.0825 96.1341 49.9946 96.4767C50.9081 96.8199 51.9269 96.3569 52.269 95.4429L57.229 82.1925Z" fill="#FF9166"/>
<path d="M53.9252 47.0123C52.8965 47.0123 52.0625 47.8463 52.0625 48.875C52.0625 49.9037 52.8965 50.7377 53.9252 50.7377H76.6442C77.673 50.7377 78.5069 49.9037 78.5069 48.875C78.5069 47.8463 77.673 47.0123 76.6442 47.0123H53.9252Z" fill="white"/>
<path d="M84.5016 47.0123C83.4729 47.0123 82.6389 47.8463 82.6389 48.875C82.6389 49.9037 83.4729 50.7377 84.5016 50.7377H90.6928C91.7216 50.7377 92.5556 49.9037 92.5556 48.875C92.5556 47.8463 91.7216 47.0123 90.6928 47.0123H84.5016Z" fill="white"/>
<path d="M109.29 55.291C108.263 55.291 107.431 56.1268 107.431 57.1537C107.431 58.1806 108.263 59.0164 109.29 59.0164C110.317 59.0164 111.149 58.1806 111.149 57.1537C111.149 56.1268 110.317 55.291 109.29 55.291Z" fill="white"/>
<path d="M53.9252 55.291C52.8965 55.291 52.0625 56.1249 52.0625 57.1537C52.0625 58.1824 52.8965 59.0164 53.9252 59.0164H56.8109C57.8396 59.0164 58.6736 58.1824 58.6736 57.1537C58.6736 56.1249 57.8396 55.291 56.8109 55.291H53.9252Z" fill="white"/>
<path d="M59.4978 82.1989C60.1833 81.5123 61.2959 81.5122 61.9814 82.1989L66.3101 86.5354C67.1062 87.3329 67.0865 88.6304 66.2666 89.4035L61.9688 93.4558C61.2843 94.1011 60.2106 94.0849 59.546 93.4191C58.8457 92.7175 58.873 91.5733 59.6059 90.9058L62.0316 88.6967C62.4532 88.3127 62.4688 87.6545 62.066 87.2509L59.4978 84.6781C58.814 83.9931 58.814 82.8839 59.4978 82.1989Z" fill="white"/>
<path d="M53.922 80.9546C54.2641 80.0407 55.2828 79.5776 56.1964 79.9208C57.1084 80.2634 57.5705 81.2801 57.229 82.1925L52.269 95.4429C51.9269 96.3569 50.9081 96.8199 49.9946 96.4767C49.0825 96.1341 48.6204 95.1174 48.962 94.205L53.922 80.9546Z" fill="white"/>
<path d="M41.0862 90.1094C39.8563 88.9498 39.8268 87.0035 41.021 85.8072L44.6228 82.1989C45.3083 81.5122 46.4209 81.5123 47.1064 82.1989C47.7901 82.8839 47.7901 83.9931 47.1064 84.6781L44.5382 87.2509C44.1353 87.6545 44.151 88.3127 44.5726 88.6967L46.9983 90.9058C47.7312 91.5733 47.7584 92.7175 47.0581 93.4191C46.3935 94.0849 45.3198 94.1011 44.6354 93.4558L41.0862 90.1094Z" fill="white"/>
<path d="M10.9497 54.8771H13.842C14.8689 54.8771 15.7014 54.0431 15.7014 53.0143C15.7014 51.9856 14.8689 51.1516 13.842 51.1516H10.9497C9.92275 51.1516 9.09028 51.9856 9.09028 53.0143C9.09028 54.0431 9.92275 54.8771 10.9497 54.8771Z" fill="white"/>
<path d="M10.9497 71.4344H13.842C14.8689 71.4344 15.7014 70.6005 15.7014 69.5717C15.7014 68.543 14.8689 67.709 13.842 67.709H10.9497C9.92275 67.709 9.09028 68.543 9.09028 69.5717C9.09028 70.6005 9.92275 71.4344 10.9497 71.4344Z" fill="white"/>
<path d="M10.9497 87.9918H13.842C14.8689 87.9918 15.7014 87.1578 15.7014 86.1291C15.7014 85.1004 14.8689 84.2664 13.842 84.2664H10.9497C9.92275 84.2664 9.09028 85.1004 9.09028 86.1291C9.09028 87.1578 9.92275 87.9918 10.9497 87.9918Z" fill="white"/>
<path d="M0 29.6271V106C0 109.314 2.68629 112 6 112H14.0486L11.2146 110.344C9.83345 109.537 8.74121 108.316 8.0925 106.853C7.66063 105.88 7.4375 104.827 7.4375 103.762V29.6271H0Z" fill="#DADADA"/>
<path d="M33.1632 75.9877C31.5063 75.9877 30.1632 77.3309 30.1632 78.9877V97.8238C30.1632 99.4806 31.5063 100.824 33.1632 100.824H40.4931L38.4271 99.168C37.6333 98.3728 37.1875 97.2952 37.1875 96.1716V80.6398C37.1875 79.5163 37.6333 78.4386 38.4271 77.6434L40.4931 75.9877H33.1632Z" fill="#E7825B"/>
</svg>
